<svg width="164" height="142" viewBox="0 0 164 142" fill="none" xmlns="http://www.w3.org/2000/svg">
<path fill-rule="evenodd" clip-rule="evenodd" d="M99.5401 2.11228C95.1881 4.60098 93.3865 6.97688 93.9339 9.50679C94.2348 10.8969 95.6258 13.5375 97.641 16.5436C98.6144 17.9954 100.152 20.4691 101.058 22.0408C101.964 23.6126 103.587 26.4001 104.665 28.2348C108.338 34.4916 115.289 47.6754 115.788 49.3332C116.01 50.0712 111.937 55.1313 111.121 55.1313C110.984 55.1313 110.399 54.082 109.82 52.7999C107.935 48.6248 106.915 47.0091 106.165 47.0091C105.82 47.0091 101.73 50.1346 100.391 51.4206C99.8171 51.9723 99.2477 52.4239 99.1258 52.4239C98.6782 52.4239 93.8515 58.1184 92.219 60.5729C91.293 61.9645 89.8395 64.4908 88.9887 66.1865L87.4419 69.2699L86.0157 69.2738C85.2312 69.2759 80.625 69.0545 75.7796 68.7823C63.5052 68.0919 57.5155 68.6695 54.2104 70.8619C52.3697 72.0826 50.7512 75.0983 49.8608 78.966C49.1268 82.1535 49.088 83.6805 49.6899 85.7074C50.2591 87.6234 51.2268 88.2671 52.391 87.5042C52.814 87.2272 53.4631 86.5272 53.8335 85.9487C54.3533 85.1377 54.6448 84.9409 55.1089 85.089C55.4398 85.1945 56.6582 85.3829 57.8163 85.5077C58.9745 85.6322 60.2834 85.8323 60.7247 85.9517C61.6633 86.2056 62.0456 85.6987 62.3497 83.7969L62.5402 82.6057L63.9832 82.8337C66.9875 83.3087 72.4501 83.716 77.8105 83.8649C80.8656 83.95 83.4668 84.1209 83.5908 84.2448C83.7147 84.3688 83.5454 85.5513 83.2144 86.8725C81.6306 93.1955 80.255 101.196 79.8874 106.223L79.5056 111.439L77.9642 111.247C76.1163 111.016 72.7218 111.66 70.9069 112.586C69.1661 113.474 67.0838 115.632 66.3771 117.281C65.6555 118.964 65.5884 122.336 66.233 124.506C66.8717 126.657 68.6787 129.075 70.8146 130.638C71.8323 131.382 72.6745 132.119 72.686 132.276C72.6977 132.432 72.3415 132.942 71.8948 133.408C70.9713 134.372 70.7893 136.068 71.5299 136.809C71.7763 137.055 72.5816 137.297 73.3198 137.346C74.5448 137.427 74.7222 137.543 75.3447 138.668C76.2047 140.222 77.2639 140.567 78.4618 139.681C79.511 138.905 79.5041 138.905 80.5832 139.813C81.7344 140.781 83.213 140.814 84.0273 139.888C84.3546 139.516 84.9535 138.697 85.3581 138.069C85.9685 137.122 86.2215 136.956 86.8457 137.094C87.2593 137.186 97.9535 137.39 110.611 137.548C125.596 137.735 134.287 137.957 135.525 138.185C136.782 138.417 137.928 138.88 138.902 139.55C140.587 140.709 140.883 140.759 141.884 140.058C142.29 139.774 143.472 139.476 144.575 139.381L146.541 139.211L146.877 138.008C147.204 136.836 147.253 136.8 148.758 136.647C150.683 136.45 151.021 136.118 151.021 134.427C151.021 132.751 149.869 131.086 148.502 130.785C147.995 130.674 147.626 130.446 147.681 130.278C147.737 130.111 148.793 129.433 150.029 128.771C154.362 126.449 155.831 124.658 156.327 121.089C157.045 115.922 153.675 109.906 149.346 108.624C147.106 107.961 144.62 108.127 142.824 109.058C141.952 109.511 141.199 109.881 141.151 109.881C141.051 109.881 140.757 107.566 140.523 104.924C140.436 103.935 140.228 102.522 140.063 101.784C139.584 99.6451 138.57 92.6507 138.718 92.503C138.792 92.429 139.548 92.5469 140.399 92.7647C142.409 93.28 143.322 92.8246 143.928 91.0043C144.162 90.3013 144.52 89.7258 144.725 89.7258C145.234 89.7258 148.074 93.5887 149.347 96.0121C150.775 98.7327 151.371 100.556 151.994 104.11C152.502 107.013 152.563 107.158 153.452 107.534C153.963 107.749 155.057 107.916 155.884 107.905C159.515 107.855 163.745 104.353 163.13 101.906C162.766 100.455 159.645 99.2192 159.645 100.526C159.645 100.891 159.971 101.212 160.547 101.413C161.836 101.862 161.717 102.774 160.166 104.325C157.353 107.137 153.327 106.664 153.327 103.521C153.327 102.191 153.775 101.052 154.788 99.8037C156.366 97.8592 158.302 97.3294 159.549 98.5011C161.285 100.132 160.681 97.222 158.312 92.5454L156.453 88.8739L157.886 87.6393C160.854 85.0826 160.25 83.0031 154.536 76.107C151.686 72.6677 150.291 71.5688 148.133 71.067C145.927 70.5538 144.633 69.2441 142.643 65.5096C142.291 64.8478 141.526 63.4265 140.945 62.351C140.363 61.2756 137.814 56.3346 135.28 51.371C132.746 46.4074 129.558 40.2481 128.196 37.6836C126.834 35.1191 124.574 30.7873 123.173 28.0573C114.577 11.3024 112.947 8.41932 110.168 5.06214C107.754 2.14567 105.868 0.896961 103.692 0.776331C102.188 0.692702 101.809 0.814837 99.5401 2.11228ZM105.56 3.2172C107.216 4.08116 108.816 6.2519 111.342 11.0608C112.298 12.8808 113.201 14.4983 113.349 14.6557C113.964 15.3075 113.603 15.6911 112.419 15.6439C111.759 15.6177 111.056 15.76 110.855 15.9606C110.203 16.6122 111.06 17.009 113.022 16.9645C114.604 16.929 114.955 17.0213 115.439 17.6016C115.75 17.9749 116.01 18.381 116.016 18.5035C116.021 18.6262 117.021 20.5891 118.239 22.8654C119.456 25.142 122.317 30.6594 124.597 35.1266C126.877 39.5938 130.032 45.7532 131.608 48.814C133.184 51.8749 134.675 54.7853 134.922 55.2817C135.651 56.7506 141.067 66.4539 141.89 67.7658C142.327 68.4634 144.441 72.101 144.55 72.3434C144.711 72.7008 141.838 75.5382 140.939 75.9109C138.005 77.1259 135.534 74.1508 133.767 67.277C133.237 65.2148 130.914 60.1589 130.105 59.3046C129.889 59.0775 129.107 58.0947 128.366 57.1209C127.625 56.1469 125.161 53.4623 122.89 51.155C119.809 48.0247 118.624 47.0028 118.221 47.1297C117.784 47.2669 117.206 46.5022 115.225 43.1685C112.305 38.2537 111.347 36.0592 110.874 33.1974C110.54 31.1711 110.275 30.6931 109.859 31.3663C109.301 32.2676 108.828 31.5315 104.503 23.0462C104.204 22.4605 103.08 20.5581 102.005 18.8187C100.212 15.9179 100.089 15.6132 100.518 15.1391C100.947 14.6644 100.891 14.5377 99.8307 13.5935C97.8792 11.8556 96.1712 9.33201 96.1712 8.18709C96.1712 7.34147 96.4545 6.90949 97.8795 5.58317C100.474 3.16877 103.613 2.20163 105.56 3.2172ZM110.447 24.2835C109.581 25.1486 109.483 25.9515 110.243 25.9515C110.835 25.9515 112.716 24.3632 112.716 23.8626C112.716 23.2619 111.184 23.5459 110.447 24.2835ZM119.485 38.1005C118.989 38.3171 118.425 38.8192 118.234 39.2169C117.261 41.2327 117.573 41.6557 119.248 40.5913C120.771 39.6233 121.552 38.7091 121.336 38.146C121.122 37.5891 120.682 37.5783 119.485 38.1005ZM106.555 50.6782C107.026 51.2074 107.895 52.8095 108.485 54.2387C109.075 55.6679 109.764 57.1447 110.017 57.5201L110.476 58.2033L111.972 57.015C113.4 55.8809 115.55 53.663 117.83 50.9727C118.409 50.2892 119.019 49.7306 119.184 49.7315C119.699 49.7336 121.289 51.2814 123.031 53.4768C123.95 54.6349 125.66 56.7229 126.829 58.1166C127.999 59.5107 128.893 60.7142 128.815 60.7919C128.738 60.8692 128.502 60.7991 128.291 60.6357C127.394 59.9402 124.978 59.578 121.979 59.689C119.298 59.7883 118.632 59.9234 117.084 60.6805C114.805 61.7957 112.968 63.4866 112.255 65.127C111.947 65.8339 111.67 66.453 111.639 66.5033C111.607 66.5535 110.788 65.7969 109.818 64.8226C106.996 61.9882 104.323 60.5954 100.769 60.1066C99.2826 59.9023 95.9398 60.497 95.1402 61.1086C94.5094 61.5905 93.7204 61.7647 93.9544 61.37C95.2347 59.2113 104.461 49.7165 105.278 49.7165C105.509 49.7165 106.084 50.1494 106.555 50.6782ZM125.624 61.6182C128.927 62.7686 130.081 64.2573 130.374 67.7463C130.715 71.811 129.22 75.0887 126.446 76.3585C124.185 77.3939 122.221 77.705 120.247 77.3404C117.092 76.7577 114.589 75.0908 113.428 72.7995C112.762 71.4858 112.666 70.9765 112.791 69.4203C112.953 67.3958 113.469 66.1946 114.849 64.6228C117.365 61.7572 122.173 60.4164 125.624 61.6182ZM104.019 63.1073C106.035 63.7941 108.602 65.9537 109.436 67.6638C109.997 68.8148 110.142 69.5918 110.128 71.3757C110.109 73.8508 109.701 74.9365 108.306 76.2273C107.144 77.3025 106.548 77.5744 104.444 77.988C99.886 78.8842 94.3389 75.9701 93.0149 71.9842C91.8141 68.369 93.2261 64.9291 96.5962 63.261C98.125 62.5041 102.013 62.4238 104.019 63.1073ZM52.5676 65.5945C49.7754 66.9876 49.5868 68.1915 52.3209 67.1684C54.0684 66.5147 55.1493 65.6101 54.8199 65.0774C54.5482 64.6379 54.4312 64.6646 52.5676 65.5945ZM54.6709 67.0369C52.9169 67.798 51.6059 68.9914 50.9871 70.3905C50.6619 71.1254 50.4703 71.801 50.5614 71.8919C50.6523 71.983 51.2001 71.6419 51.7788 71.1338C52.3573 70.6257 54.1893 69.5124 55.8499 68.6593C57.5107 67.8061 58.8692 66.9855 58.8692 66.8354C58.8692 66.3971 55.8072 66.5442 54.6709 67.0369ZM90.606 69.7964C90.606 72.1344 90.7028 72.6033 91.4726 73.9925C92.5174 75.8778 93.0802 76.4274 95.3866 77.8133C98.0712 79.4266 99.9967 79.8817 103.541 79.7406C106.672 79.6164 107.238 79.429 109.042 77.9186C110.14 76.9986 111.137 76.847 111.411 77.5585C111.509 77.8154 111.221 78.8932 110.77 79.9536C109.803 82.229 109.873 83.0148 110.933 81.7904C112.343 80.1618 113.326 80.1657 114.615 81.8046C115.188 82.5329 115.725 82.5001 115.725 81.7372C115.725 81.4992 115.27 80.7965 114.715 80.1756C113.569 78.8935 113.017 77.9468 113.017 77.2616C113.017 76.5724 113.34 76.6521 116.595 78.1442C119.192 79.3345 119.799 79.4976 121.623 79.4946C125.193 79.4892 127.718 78.4552 129.949 76.0851C130.998 74.9705 131.513 74.1053 131.85 72.8909C132.103 71.9746 132.377 71.0264 132.457 70.7834C132.542 70.5253 133.025 71.2126 133.619 72.4379C134.178 73.5909 135.254 75.1961 136.01 76.005C137.544 77.6466 137.584 77.7534 136.898 78.3232C136.631 78.5446 136.009 79.441 135.516 80.3152C134.94 81.3365 134.42 81.9044 134.063 81.9044C133.17 81.9044 131.383 83.108 130.905 84.0316C129.963 85.8533 130.577 87.9152 132.066 87.9254C133.042 87.9323 133.469 88.3044 134.339 89.9105C134.773 90.7107 135.441 91.5208 135.823 91.711C136.206 91.9011 136.52 92.1387 136.52 92.2392C136.52 92.3397 136.649 92.8646 136.807 93.4055C137.264 94.9713 138.903 104.657 139.212 107.625C139.692 112.211 139.718 112.287 140.801 112.287C141.4 112.286 142.407 111.846 143.551 111.084C146.423 109.172 148.78 109.524 151.538 112.276C155.213 115.943 155.777 121.619 152.811 125.101C151.84 126.241 150.209 127.228 147.388 128.381C145.859 129.007 144.455 129.703 144.268 129.928C143.757 130.544 144.396 131.13 146.367 131.855C148.411 132.606 148.963 132.99 149.237 133.854C149.57 134.904 148.532 135.285 147.101 134.638C146.472 134.353 145.729 133.933 145.45 133.704C144.25 132.717 144.197 134.392 145.37 136.183C145.851 136.917 145.856 137.034 145.427 137.463C144.805 138.086 143.814 137.82 142.322 136.632L141.144 135.693L141.052 136.925C140.976 137.939 140.849 138.158 140.34 138.158C139.999 138.158 139.229 137.634 138.627 136.994L137.534 135.831L133.172 136.039C130.773 136.154 123.26 136.208 116.477 136.16C105.408 136.081 89.6695 136.021 85.8572 136.044C84.4403 136.052 84.4087 136.073 83.8375 137.406C83.3775 138.479 83.1059 138.76 82.5271 138.76C81.9561 138.76 81.692 138.498 81.3157 137.557C81.0506 136.895 80.7161 136.353 80.5723 136.353C80.4282 136.353 79.7929 136.764 79.1606 137.267C77.3105 138.737 76.0982 137.871 77.655 136.191C78.077 135.736 78.4227 135.247 78.4227 135.106C78.4227 134.611 76.3235 134.855 75.1004 135.493C73.938 136.099 73.836 136.107 73.3616 135.624C72.8893 135.145 72.9101 135.066 73.6889 134.39C74.1462 133.992 75.0938 133.503 75.7947 133.301C77.5157 132.807 78.7235 131.932 78.7235 131.18C78.7235 130.59 78.6113 130.57 76.3921 130.762C74.1633 130.955 73.9997 130.925 72.6712 130.08C67.3855 126.72 66.6003 118.075 71.2664 114.61C73.4672 112.975 76.8316 112.676 78.8739 113.934C79.5357 114.342 80.1635 114.68 80.2694 114.685C80.375 114.69 80.5432 114.254 80.643 113.716C80.8795 112.443 82.2684 103.133 82.4768 101.425C82.8989 97.9671 84.2541 90.7167 85.0856 87.4697C85.5937 85.4842 86.0732 83.5809 86.1511 83.2401C86.2859 82.6484 86.0891 82.6027 81.8174 82.2327C79.3561 82.0194 73.6258 81.6891 69.0833 81.4986L60.8246 81.1524L60.7397 79.7987C60.6107 77.7414 60.4735 77.5091 59.7654 78.1499C59.4194 78.4631 59.1682 79.0785 59.1655 79.6197C59.1595 80.8245 58.7982 81.372 58.1683 81.1304C57.8922 81.0242 57.6659 80.8392 57.6659 80.7189C57.6659 80.2848 55.2903 77.939 55.0199 78.1063C54.8674 78.2004 54.6538 79.0334 54.5452 79.9575C54.3343 81.7513 52.9635 85.1091 52.1783 85.7547C51.5192 86.2965 51.3069 85.8582 51.124 83.5767C50.8451 80.1058 52.5089 74.3968 54.2597 72.816C55.2004 71.9668 57.3958 71.1296 59.6264 70.7698C61.5709 70.4561 74.5794 70.3375 78.8739 70.5945C79.8666 70.654 82.4386 70.796 84.5895 70.91L88.5002 71.1173L89.3702 69.1409C89.8485 68.0537 90.3223 67.1642 90.4231 67.1642C90.5235 67.1642 90.606 68.3488 90.606 69.7964ZM115.698 70.6561C115.356 71.0673 115.382 71.203 115.869 71.5586C116.184 71.789 116.614 71.9773 116.824 71.9773C117.299 71.9773 117.924 70.8682 117.676 70.4669C117.39 70.0033 116.14 70.1228 115.698 70.6561ZM104.466 70.9747C104.209 71.6452 104.665 72.051 105.537 71.9277C106.007 71.8612 106.282 71.5965 106.345 71.1501C106.426 70.5788 106.302 70.4732 105.55 70.4732C104.995 70.4732 104.586 70.6627 104.466 70.9747ZM150.283 74.0945C150.834 74.5972 151.759 75.7138 152.341 76.5763C152.923 77.4387 154.349 79.1137 155.51 80.299C157.446 82.2742 157.632 82.575 157.743 83.9088C157.835 85.0146 157.727 85.5363 157.293 86.082C156.75 86.7648 156.489 86.8109 151.941 87.0256C146.153 87.2985 144.131 87.8027 142.815 89.3017C142.31 89.8774 141.896 90.6063 141.896 90.9219C141.896 92.3189 140.349 91.7103 139.685 90.0522C139.144 88.6994 139.043 88.6624 137.307 89.1828C136.236 89.5035 136.063 89.4813 135.693 88.9747C135.465 88.6627 135.278 87.892 135.278 87.2618V86.116H133.924C132.809 86.116 132.571 86.0182 132.571 85.5609C132.571 84.8426 133.338 84.185 134.764 83.6817C136.149 83.1923 136.556 82.735 137.076 81.0814C137.297 80.3808 137.727 79.5815 138.032 79.305C138.552 78.8352 138.626 78.8388 139.204 79.3616C139.81 79.9097 139.834 79.9037 140.529 79.0322C141.227 78.1568 141.282 78.1433 144.499 78.072C146.294 78.0323 147.932 77.9351 148.138 77.8557C148.629 77.668 148.618 75.9446 148.12 74.9855C147.247 73.303 147.259 73.1806 148.306 73.1806C148.974 73.1806 149.599 73.4697 150.283 74.0945ZM146.348 75.3465C146.97 75.9683 146.75 76.1888 145.506 76.1888C144.235 76.1888 143.952 75.8215 144.829 75.3104C145.529 74.9025 145.914 74.9118 146.348 75.3465ZM153.327 89.1037C153.327 89.6605 151.439 90.7116 150.185 90.853C148.786 91.0106 147.612 90.56 147.612 89.8657C147.612 89.6232 147.645 89.4181 147.687 89.4097C147.728 89.4012 148.371 89.3188 149.116 89.2265C149.86 89.1341 150.526 89.0057 150.595 88.941C150.861 88.6913 153.327 88.8384 153.327 89.1037ZM156.023 90.6851C156.36 91.047 156.636 91.442 156.636 91.5629C156.636 91.6836 156.712 91.979 156.804 92.2193C156.899 92.4672 156.753 92.7404 156.466 92.8508C155.883 93.074 152.425 92.1784 152.425 91.8042C152.425 91.3051 154.091 90.0266 154.742 90.0266C155.109 90.0266 155.686 90.323 156.023 90.6851ZM151.92 92.9127C152.694 93.1766 153.327 93.5102 153.327 93.6546C153.327 93.7987 152.936 94.3167 152.458 94.8055L151.589 95.6947L150.84 94.8912C150.134 94.1335 149.417 92.9801 149.417 92.6035C149.417 92.2936 150.493 92.4266 151.92 92.9127ZM157.226 93.931C157.818 94.2478 158.54 95.9408 158.27 96.3785C158.179 96.525 157.921 96.6447 157.695 96.6447C157.47 96.6447 156.377 97.2539 155.266 97.9984C154.156 98.743 153.147 99.3521 153.024 99.3521C152.567 99.3521 152.443 97.4852 152.839 96.5509C153.452 95.1024 154.341 94.4162 155.087 94.8157C156.173 95.3969 156.725 95.2315 156.513 94.3886C156.305 93.5607 156.409 93.4939 157.226 93.931ZM27.8845 116.792C21.7126 117.387 21.0339 117.492 17.2054 118.445C15.7163 118.816 13.7694 119.489 12.8786 119.94C10.0527 121.373 7.11066 124.57 4.36446 129.193C3.21261 131.131 3.16749 131.297 3.5375 132.219C3.75259 132.756 4.24233 133.577 4.62587 134.045C5.00912 134.513 5.32288 135.063 5.32288 135.268C5.32288 135.473 4.49592 136.036 3.48546 136.519C1.79123 137.329 0.810547 138.189 0.810547 138.866C0.810547 139.414 2.86426 138.786 4.50886 137.733C6.27017 136.607 7.7078 136.354 8.29952 137.067C8.78083 137.647 8.48512 138.2 7.2716 138.988C6.69613 139.362 6.22535 139.802 6.22535 139.966C6.22535 140.55 7.84046 140.251 8.85303 139.478C10.0668 138.553 11.7156 138.351 11.8721 139.11C11.9334 139.409 11.7256 139.69 11.3565 139.807C11.0132 139.916 10.7377 140.262 10.7377 140.585C10.7377 141.357 11.7563 141.349 13.2947 140.565C15.1342 139.627 17.3206 139.919 15.5508 140.866C14.6607 141.342 14.8069 141.846 15.7764 141.643C16.2313 141.547 18.2958 141.4 20.364 141.316C39.508 140.536 44.3365 140.182 48.6503 139.242C53.8088 138.118 56.0683 137.259 58.8286 135.37C60.0785 134.515 60.1339 134.415 59.982 133.282C59.8941 132.628 59.214 130.784 58.4703 129.184C56.4136 124.759 56.1651 124.14 56.0926 123.264C55.9067 121.02 49.4739 118.283 42.0232 117.278C37.6787 116.692 31.224 116.47 27.8845 116.792ZM44.4923 119.569C46.9293 120.377 49.5437 121.747 49.5437 122.216C49.5437 122.503 48.3744 122.867 45.038 123.619C42.4455 124.204 24.8763 124.582 24.8763 124.053C24.8763 123.863 25.4903 123.274 26.2408 122.745C27.4971 121.859 28.223 120.648 27.769 120.194C27.6658 120.091 27.2772 120.269 26.9057 120.589C25.7508 121.586 24.4452 122.421 23.6673 122.66C23.2567 122.786 22.7633 123.016 22.5708 123.169C22.3783 123.323 21.2953 123.521 20.1642 123.609C18.3202 123.753 17.9385 123.681 16.4665 122.917C15.5641 122.448 14.7846 121.926 14.7347 121.757C14.633 121.412 17.3134 120.699 17.511 121.019C17.5808 121.132 17.2959 121.38 16.8781 121.57C15.9127 122.01 16.2274 122.579 17.2989 122.33C18.4974 122.053 19.463 121.365 19.2898 120.914C19.1854 120.642 19.5912 120.413 20.5731 120.188C21.3624 120.007 22.1124 119.924 22.2393 120.002C22.366 120.08 21.8946 120.582 21.1912 121.118C19.796 122.18 19.3126 123.418 20.293 123.418C21.227 123.418 23.1195 121.582 23.174 120.622C23.2281 119.674 23.1682 119.697 27.1325 119.071C28.984 118.779 31.7892 118.669 36.0067 118.722C41.6971 118.794 42.3529 118.86 44.4923 119.569ZM13.2995 124.185C18.1785 126.342 24.9563 127.18 35.5555 126.936C41.584 126.797 43.4376 126.642 46.79 125.998C48.998 125.574 51.4284 125.015 52.1907 124.757C53.5474 124.296 53.5877 124.301 54.1102 124.98C54.9754 126.105 55.543 127.466 56.172 129.926C57.1924 133.915 57.3576 133.652 52.928 135.092C44.6033 137.799 40.3244 138.496 30.8928 138.68C23.2245 138.83 20.4347 138.622 15.5508 137.537C10.4555 136.405 7.18467 134.458 6.49157 132.145C5.97867 130.433 6.685 128.838 9.27478 125.861C10.4432 124.517 11.4368 123.418 11.4822 123.418C11.5279 123.418 12.3456 123.763 13.2995 124.185ZM133.328 127.192C132.711 127.944 131.443 129.12 130.509 129.805C129.575 130.491 128.765 131.161 128.71 131.296C128.655 131.43 128.478 131.54 128.318 131.54C127.838 131.54 126.158 133.25 126.456 133.435C126.915 133.719 131.484 131.289 132.685 130.123C134.618 128.245 135.75 125.824 134.695 125.824C134.559 125.824 133.944 126.44 133.328 127.192ZM127.754 128.435C125.416 130.001 122.042 132.72 122.042 133.036C122.042 133.398 123.634 132.918 125.558 131.977C127.137 131.204 129.863 128.526 129.863 127.747C129.863 127.123 129.565 127.22 127.754 128.435ZM121.741 129.981C121.741 130.116 121.196 130.533 120.529 130.907C119.351 131.57 118.189 132.901 118.509 133.222C118.805 133.518 120.748 132.514 121.548 131.652C122.34 130.797 122.614 129.735 122.042 129.735C121.876 129.735 121.741 129.846 121.741 129.981Z" fill="black"/>
</svg>
