<svg width="142" height="80" viewBox="0 0 142 80" fill="none" xmlns="http://www.w3.org/2000/svg">
<path fill-rule="evenodd" clip-rule="evenodd" d="M0 0H124C133.85 1.74191e-05 142 8.68867 142 19.6C142 30.5113 133.85 39.6 124 39.6C133.895 39.8872 142 48.8461 142 59.6C142 70.3539 133.895 78.9128 124 79.2H0V77.6C6.99293 77.5999 10.5052 77.3766 13.2 76C15.5916 74.7783 17.5814 72.7978 18.8 70.4C20.1853 67.6741 20 64.3368 20 57.2V22C20 14.8632 20.1853 11.5259 18.8 8.8C17.5814 6.40222 15.5916 4.42173 13.2 3.2C10.5052 1.8234 6.99293 1.60011 0 1.6V0ZM75.6 11.2C75.6 20.8249 75.4471 25.5654 73.6 29.2C71.9752 32.397 69.1888 35.171 66 36.8C62.3748 38.6519 57.8913 38.8 48.4 38.8H44C40.6781 38.8 38.8688 38.6482 37.6 38C36.4839 37.4299 35.7687 36.319 35.2 35.2C34.5535 33.9279 34.4 32.5305 34.4 29.2V22C34.4 14.8632 34.2147 11.5259 35.6 8.8C36.8186 6.40222 38.8084 4.42173 41.2 3.2C43.9189 1.81108 48.8 1.6 48.8 1.6H66C69.322 1.6 70.7312 1.75184 72 2.4C73.1161 2.97014 74.2313 3.68103 74.8 4.8C75.4465 6.07209 75.6 7.83127 75.6 11.2ZM77.6 26C77.0309 23.8542 77.2 21.2284 77.2 16V11.2C77.2 7.86947 76.9535 6.47209 77.6 5.2C78.1687 4.08103 79.2839 2.97014 80.4 2.4C81.6688 1.75184 83.078 1.6 86.4 1.6H105.6C115.769 1.6 124 10.2044 124 20.4C124 30.5956 115.769 38.8 105.6 38.8H99.6C94.3851 38.8 91.7403 38.5706 89.6 38C83.7263 36.4342 79.1618 31.8889 77.6 26ZM75.6 68C75.6 58.3751 75.4471 53.2346 73.6 49.6C71.9752 46.403 69.1888 44.029 66 42.4C62.3748 40.5481 57.8913 40.4 48.4 40.4H44C40.6781 40.4 38.8688 40.5518 37.6 41.2C36.4839 41.7701 35.7687 42.481 35.2 43.6C34.5535 44.8721 34.4 46.6695 34.4 50V57.2C34.4 64.3369 34.2147 67.6741 35.6 70.4C36.8186 72.7978 38.8084 74.7783 41.2 76C43.9189 77.3889 48.8 77.6 48.8 77.6H66C69.322 77.6 70.7312 77.4482 72 76.8C73.1161 76.2299 74.2313 75.119 74.8 74C75.4465 72.7279 75.6 71.3687 75.6 68ZM77.2 63.2C77.2 57.9716 77.0309 55.3458 77.6 53.2C79.1618 47.3111 83.7263 42.7658 89.6 41.2C91.7403 40.6294 94.3851 40.4 99.6 40.4H105.6C115.769 40.4 124 48.6044 124 58.8C124 68.9956 115.769 77.6 105.6 77.6H86.4C83.078 77.6 81.6688 77.4482 80.4 76.8C79.2839 76.2299 78.1687 75.119 77.6 74C76.9535 72.7279 77.2 71.3305 77.2 68V63.2Z" fill="black"/>
</svg>
