<svg width="24" height="24" viewBox="0 0 24 24" fill="none" xmlns="http://www.w3.org/2000/svg">
<path d="M17.5001 22.0001C16.418 22.0126 15.3925 21.5182 14.7283 20.6638C14.0642 19.8095 13.838 18.6936 14.1171 17.6481L7.85709 14.0701C6.77538 15.0611 5.18977 15.2709 3.88758 14.5952C2.58538 13.9195 1.84397 12.5023 2.03146 11.0473C2.21895 9.59226 3.29542 8.40932 4.72637 8.08583C6.15732 7.76234 7.63795 8.3672 8.43309 9.60008L14.1161 6.35108C14.0426 6.07327 14.0036 5.78744 14.0001 5.50008C13.9858 3.8268 15.1479 2.37322 16.7833 2.0189C18.4187 1.66458 20.0782 2.50683 20.7577 4.036C21.4372 5.56517 20.9501 7.36131 19.5911 8.33759C18.232 9.31387 16.3744 9.20217 15.1421 8.07008L8.99109 11.5851C8.985 11.8444 8.94876 12.1021 8.88309 12.3531L15.1421 15.9301C16.2944 14.8726 18.0089 14.7094 19.34 15.5304C20.6711 16.3514 21.2947 17.9568 20.8669 19.4611C20.4391 20.9654 19.064 22.0024 17.5001 22.0001ZM17.5001 17.0001C16.6717 17.0001 16.0001 17.6717 16.0001 18.5001C16.0001 19.3285 16.6717 20.0001 17.5001 20.0001C18.3285 20.0001 19.0001 19.3285 19.0001 18.5001C19.0001 17.6717 18.3285 17.0001 17.5001 17.0001ZM5.50009 10.0001C4.67166 10.0001 4.00009 10.6717 4.00009 11.5001C4.00009 12.3285 4.67166 13.0001 5.50009 13.0001C6.32852 13.0001 7.00009 12.3285 7.00009 11.5001C7.00009 10.6717 6.32852 10.0001 5.50009 10.0001ZM17.5001 4.00008C16.6717 4.00008 16.0001 4.67165 16.0001 5.50008C16.0001 6.32851 16.6717 7.00008 17.5001 7.00008C18.3285 7.00008 19.0001 6.32851 19.0001 5.50008C19.0001 4.67165 18.3285 4.00008 17.5001 4.00008Z" fill="black"/>
</svg>
