<svg width="178" height="142" viewBox="0 0 178 142" fill="none" xmlns="http://www.w3.org/2000/svg">
<path fill-rule="evenodd" clip-rule="evenodd" d="M152.765 0.380653C152.494 1.54697 152.226 3.04805 152.014 4.58274C151.662 7.12605 151.859 7.81327 153.667 10.3684C154.036 10.8895 154.338 11.3727 154.338 11.4422C154.338 11.5116 153.912 11.7675 153.393 12.0106C151.609 12.8454 150.805 13.8446 150.287 15.8725C149.726 18.0624 149.965 19.5176 150.951 19.9298C151.741 20.2597 152.631 20.1987 154.59 19.6798C157.228 18.9812 157.078 18.9834 157.389 19.6366C158.047 21.0155 159.737 22.7013 160.985 23.2229C161.85 23.5842 162.322 23.5066 163.324 22.8377C164.38 22.1325 165.152 21.253 165.596 20.2492C165.947 19.4555 166.341 17.5674 166.341 16.6814C166.341 15.9721 166.523 15.8753 168.442 15.5604C171.865 14.9986 175.285 11.8988 174.724 9.86592C174.441 8.84155 172.85 8.0676 170.244 7.68663C167.934 7.34887 166.212 7.72294 164.788 8.87141C164.238 9.3148 164.189 9.3268 163.783 9.11673C163.548 8.99535 163.19 8.89586 162.988 8.89586C162.667 8.89586 162.597 8.9961 162.442 9.68361C162.156 10.9472 162.134 10.9965 161.841 10.9965C161.464 10.9965 161.09 11.3945 161.09 11.7949C161.09 12.3255 160.279 13.8672 159.596 14.6361C158.849 15.4773 156.478 17.0936 155.004 17.7673C154.23 18.121 153.731 18.247 153.062 18.2585L152.162 18.2738L152.115 17.7016C152.057 17.0041 152.743 15.4516 153.536 14.4838C154.455 13.3628 155.033 13.0777 156.778 12.887C158.289 12.7218 158.313 12.7131 158.267 12.3455C158.194 11.76 157.774 11.2795 156.656 10.5051C155.212 9.50476 154.839 9.11148 154.304 8.02484C153.713 6.82505 153.595 5.34753 153.941 3.51095C154.072 2.81878 154.209 2.22204 154.246 2.18498C154.379 2.05188 156.079 2.48312 156.852 2.84624C157.89 3.33389 159.017 4.23688 159.439 4.9187C159.716 5.36779 159.811 5.8532 159.96 7.5975C160.06 8.76907 160.22 9.87358 160.316 10.0518C160.525 10.4421 161.081 10.6528 161.237 10.4005C161.426 10.0953 161.553 7.19072 161.445 5.64493C161.344 4.19652 161.332 4.16021 160.805 3.6754C159.431 2.4132 158.207 1.74279 155.711 0.885413C154.363 0.422066 153.165 0.043045 153.051 0.043045C152.937 0.043045 152.808 0.194893 152.765 0.380653ZM135.357 2.79312C134.404 3.16659 133.923 3.5207 133.636 4.05997C133.472 4.36772 133.237 4.74704 133.115 4.90309C132.906 5.16868 132.87 5.17108 132.549 4.94015C132.36 4.80451 131.868 4.45025 131.455 4.1527C130.73 3.62979 130.67 3.61403 129.655 3.68095C128.379 3.76513 127.261 4.25039 126.948 4.85658C126.694 5.34723 126.661 6.44633 126.882 7.02822C126.966 7.24969 127.478 7.88964 128.019 8.45052C128.856 9.3169 128.981 9.51376 128.849 9.75924C128.653 10.126 126.581 11.754 122.731 14.5657C119.882 16.6466 117.624 18.5193 115.282 20.7433C114.649 21.3438 113.692 22.5502 112.764 23.9162C111.064 26.4175 109.623 27.9183 109.623 27.1873C109.623 26.5919 108.812 19.8869 108.641 19.0694C107.691 14.5296 104.783 10.8321 100.372 8.55601C98.1752 7.42254 95.8259 6.70607 91.3926 5.81748C86.7452 4.88599 84.1119 4.51147 82.6573 4.57509L81.6395 4.6195L81.6542 5.51979C81.6623 6.01495 81.7226 6.90758 81.7882 7.50357L81.9073 8.58692L81.488 8.74642C81.1924 8.8588 80.4667 8.8591 79.0284 8.74747C75.5237 8.47528 70.0575 8.3863 68.8203 8.58136C67.4303 8.80043 66.3462 9.37137 65.8257 10.1588C65.4414 10.7401 65.4345 10.7964 65.4427 13.3118C65.4498 15.4629 65.5392 16.4619 66.0011 19.5493C66.6709 24.0262 66.7905 25.3414 66.5776 25.8888C66.4328 26.2612 66.3453 26.3014 65.6789 26.3014C65.2729 26.3014 64.5092 26.1682 63.9816 26.0052C63.4542 25.8423 58.3323 24.7592 52.5997 23.5986C41.45 21.3411 36.2004 20.2137 35.7726 19.9848C35.3607 19.7643 35.2236 19.3943 34.97 17.8182C34.8407 17.0148 34.5992 16.0916 34.4334 15.7664C34.0364 14.9883 33.2113 14.6055 31.9213 14.601C30.6038 14.5965 30.055 14.8871 29.5794 15.8416C29.2355 16.5316 29.1978 16.7819 29.1978 18.3783V20.1494H28.7571C28.5148 20.1494 27.7553 20.0149 27.0691 19.8504C25.4406 19.46 24.5498 19.4604 24.0522 19.8518C22.9279 20.7361 23.0906 23.8502 24.3174 24.9274C24.5933 25.1696 25.1629 25.4821 25.583 25.6217C26.0031 25.7612 26.3469 25.9336 26.3469 26.0048C26.3469 26.076 25.9851 26.5263 25.5429 27.0056C25.1009 27.4848 24.6283 28.093 24.4926 28.3571C23.9374 29.4389 24.4012 31.5813 25.3758 32.4369C26.0007 32.9857 26.7315 33.1434 27.6163 32.9206C27.9815 32.8288 28.3091 32.7535 28.3442 32.7535C28.3793 32.7535 28.4399 33.2501 28.4789 33.8571C28.6041 35.8075 29.5119 37.0588 30.9168 37.2171C31.7098 37.3065 32.6653 36.8253 33.2854 36.0245C33.9836 35.1224 34.3071 34.8541 34.6957 34.8541C34.9073 34.8541 37.3185 35.7387 40.0541 36.8198C42.7896 37.9007 47.1885 39.5139 49.8294 40.4042C54.7684 42.0696 56.9955 42.9447 58.0199 43.6228C58.511 43.9476 58.6072 44.0947 58.6072 44.5198C58.6072 45.1612 57.8271 47.4241 56.5077 50.6091C54.9612 54.3426 54.6069 55.253 53.5861 58.1148C53.0703 59.5608 52.5398 60.9537 52.4072 61.2102C52.2747 61.4666 51.3924 62.4947 50.4467 63.4951C48.6904 65.3528 48.1955 66.1572 48.5478 66.5819C48.6419 66.6952 49.07 66.8703 49.4993 66.971C49.9284 67.0716 50.4033 67.2181 50.5546 67.2963C50.8212 67.434 50.8212 67.4477 50.5546 67.7446C50.4033 67.913 49.7392 68.4072 49.0788 68.8429C48.4183 69.2787 47.6594 69.9072 47.3922 70.2399C46.6289 71.1897 46.519 71.1748 44.7887 69.8871C42.4667 68.159 41.3361 67.6492 39.3253 67.4237C37.9192 67.266 36.5161 67.4399 35.5369 67.8932C34.4237 68.4083 32.7957 70.128 32.1546 71.4658C31.5094 72.8125 31.307 73.6239 31.3021 74.8842C31.2956 76.5679 31.989 77.6378 34.5424 79.8842C35.4817 80.7105 36.2501 81.4474 36.2501 81.522C36.2501 81.6591 35.8085 81.7904 34.2814 82.1072C33.2479 82.3214 32.3959 83.0045 31.5722 84.279C30.4813 85.9666 30.1302 87.8915 30.6888 89.1218C31.0156 89.8417 31.2562 90.0028 32.7943 90.533L33.915 90.9192L34.0889 92.0436C34.2858 93.3177 34.4655 93.679 35.0837 94.0442C35.6971 94.4066 36.6339 94.3776 37.7969 93.9607L38.7983 93.6014L39.2633 94.1655C40.5273 95.699 41.6396 95.5209 43.6896 93.4571C45.1684 91.9682 45.2181 91.9514 47.857 92.0537C49.2542 92.1077 49.8411 92.1959 50.3727 92.4314C51.2181 92.8059 51.3455 92.9882 51.0614 93.4169C50.704 93.9566 47.3452 95.6638 44.1085 96.951C38.014 99.3747 36.1819 99.8403 32.7239 99.8442C28.7046 99.8487 26.4867 99.2512 20.4217 96.5295C15.8056 94.4579 13.7471 93.8972 10.817 93.9131C9.10656 93.9224 8.70924 93.9751 7.59093 94.341C4.33129 95.4079 2.08508 97.0804 1.10796 99.1685C-0.398065 102.387 0.597202 106.01 3.878 109.254C5.28469 110.644 6.45972 111.462 8.63946 112.567C12.0978 114.319 15.3858 115.335 19.1446 115.812C21.5808 116.121 26.8766 116.044 29.648 115.66C33.95 115.063 38.2994 113.943 41.8342 112.522C44.0387 111.636 50.7352 108.34 52.3802 107.332C53.9976 106.341 56.874 104.301 62.2083 100.362C64.8904 98.3815 67.5497 96.4743 68.1178 96.1237C69.3039 95.3918 70.4629 95.0959 71.5743 95.241C72.6739 95.3846 75.2256 96.0462 76.0072 96.3904C76.9354 96.7991 77.1451 97.0227 77.8223 98.3242C78.148 98.9502 78.8192 99.9184 79.3139 100.476C80.6301 101.958 80.8879 102.577 80.4951 103.311C80.4021 103.485 79.8302 104.316 79.2243 105.157C76.5001 108.939 75.7092 110.906 74.8814 115.955C74.5044 118.254 74.3628 118.581 73.7419 118.581C73.0805 118.581 71.3462 119.384 70.8934 119.899C70.4401 120.416 70.427 120.469 70.4961 121.542C70.5457 122.318 70.6553 122.773 70.8595 123.055C71.2868 123.643 72.364 124.125 73.4864 124.23L74.4641 124.321L73.9649 125.465C73.3869 126.789 73.2976 127.839 73.73 128.23C74.2467 128.697 75.0866 128.934 76.2298 128.934C77.1967 128.934 77.5687 128.849 78.8456 128.334C79.6644 128.004 80.4396 127.734 80.5683 127.734C80.6969 127.734 81.1239 128.078 81.5172 128.498C82.8999 129.976 84.33 130.303 85.6977 129.454C86.9806 128.657 87.0823 128.266 86.9842 124.508C86.9517 123.255 87.0099 122.787 87.3368 121.671C88.2008 118.725 89.4076 116.336 90.6665 115.081C91.3659 114.385 92.0041 114.026 94.9421 112.682C96.6518 111.9 98.26 110.75 100.003 109.061C105.612 103.628 109.567 95.0503 111.94 83.1695C114.116 72.2727 114.58 59.7687 113.157 50.3476C112.88 48.5145 112.864 47.7027 113.097 47.2607C113.193 47.0805 114.361 45.8118 115.693 44.4416C119.344 40.6872 123.109 35.9138 126.99 30.1197C129.398 26.5245 130.601 24.9802 132.038 23.6376C133.587 22.1911 133.514 22.2197 135.693 22.1959C137.346 22.1779 137.71 22.128 138.356 21.8301C139.303 21.3936 139.75 20.9816 140.1 20.2245C140.475 19.4114 140.45 18.6448 140.002 17.2435C139.713 16.3376 139.666 16.0147 139.798 15.8555C139.892 15.7413 140.048 15.648 140.143 15.648C140.239 15.648 140.788 15.422 141.365 15.1458C143.1 14.3139 143.801 13.2261 143.636 11.6215C143.445 9.76989 141.87 8.89841 139.07 9.09453C138.308 9.14794 137.832 9.12514 137.832 9.03526C137.832 8.95498 138.035 8.44152 138.284 7.8943C139.212 5.84689 139.386 4.70338 138.909 3.79184C138.383 2.78637 136.63 2.29376 135.357 2.79312ZM155.415 5.42031C155.515 6.79339 156.277 7.4365 157.489 7.17031C157.921 7.07533 157.935 7.04713 157.846 6.44573C157.679 5.31888 157.091 4.73339 155.974 4.58364L155.349 4.49976L155.415 5.42031ZM136.792 4.84983C137.011 4.96716 137.082 5.16613 137.082 5.66308C137.082 6.17835 136.866 6.74358 136.084 8.27317C135.156 10.0899 135.099 10.2562 135.269 10.6666C135.631 11.5391 136.479 11.6444 138.377 11.0528C140.816 10.2924 142.245 10.9104 141.554 12.4269C141.297 12.9905 140.519 13.3308 138.698 13.6761C137.264 13.9478 136.182 14.3178 136.182 14.5363C136.182 14.7719 136.61 15.3647 137.327 16.1237C138.254 17.1044 138.433 17.4885 138.433 18.4971C138.433 19.059 138.345 19.33 138.051 19.6795C137.549 20.2761 136.771 20.3862 135.207 20.0825C133.094 19.6723 133.364 19.5367 130.818 22.2876C127.701 25.6547 126.732 26.8314 124.765 29.6425C123.828 30.9821 122.249 33.0813 121.256 34.3074C120.264 35.5334 118.924 37.2214 118.28 38.0586C116.921 39.8246 114.422 42.667 112.735 44.3655C110.686 46.4281 110.547 47.085 111.256 51.3594C111.852 54.955 112.012 56.6123 112.123 60.3623C112.46 71.6957 109.997 86.1071 105.993 96.2237C103.677 102.078 100.469 106.865 97.3885 109.063C96.1619 109.938 94.0885 110.903 91.8123 111.657C90.8053 111.991 89.7837 112.366 89.5421 112.491C88.5644 112.996 87.7909 114.355 86.292 118.201C84.8947 121.785 84.5156 123.02 84.6153 123.661C84.6619 123.962 84.7755 124.657 84.8675 125.206C85.1533 126.914 84.5509 128.114 83.4629 128.004C82.8592 127.943 82.5221 127.433 82.1924 126.083C81.8121 124.526 81.3762 124.475 79.7357 125.797C78.534 126.765 78.1174 126.979 77.2338 127.084C76.6249 127.156 76.4584 127.115 76.0981 126.805C75.4407 126.24 75.6493 125.676 77.0053 124.355C77.8134 123.568 78.1134 123.171 78.1134 122.891C78.1134 121.924 77.7426 121.827 76.066 122.357C74.1802 122.954 72.5616 122.661 72.5616 121.723C72.5616 121.082 72.9559 120.869 74.2609 120.806C75.2976 120.756 75.4686 120.706 75.7234 120.378C76.1463 119.833 76.6681 118.075 77.214 115.355C78.0396 111.243 78.1733 110.945 81.1841 106.502C83.1957 103.533 83.5151 102.969 83.5151 102.38C83.5151 101.812 83.0668 101.009 82.5665 100.681C81.6148 100.058 80.4546 98.7914 79.7425 97.5986C78.1985 95.0128 77.6976 94.6188 75.0308 93.8924C72.4155 93.18 70.2636 92.3868 64.7591 90.1067C63.2806 89.4942 61.8053 89.0743 61.656 89.2236C61.403 89.4766 61.5658 90.5183 61.9489 91.097C62.1741 91.4373 62.3584 91.7492 62.3584 91.7902C62.3584 91.8312 62.1591 91.9676 61.9157 92.0935C61.3376 92.3925 59.5822 92.3891 58.3071 92.0867C55.1753 91.3438 47.3141 89.752 46.4024 89.6762C44.482 89.5164 43.9654 89.795 42.1019 91.9961C41.4069 92.8171 40.8958 92.9378 40.5174 92.3701C40.2974 92.0403 40.2226 91.5936 40.177 90.3391C40.1174 88.7022 40.0599 88.5447 39.4543 88.3594C38.9787 88.2138 38.651 88.6255 38.6499 89.3696C38.6487 90.3343 38.4011 91.0143 37.8604 91.5384C37.5891 91.8013 37.1595 92.058 36.9058 92.1088C36.523 92.1853 36.3896 92.1313 36.1222 91.7914C35.4706 90.963 35.8386 89.723 37.0608 88.6292C38.0749 87.7217 37.9133 87.0025 36.6952 87.0025C36.2639 87.0025 35.8812 87.1726 35.0992 87.7119C33.9558 88.5001 33.4925 88.5807 32.8788 88.098C32.5119 87.8094 32.4783 87.7089 32.5655 87.1602C32.8017 85.6722 33.9177 84.1186 35.0095 83.7581C35.5741 83.5718 36.6882 83.6375 39.0259 83.9946C40.3148 84.1916 41.4246 84.2836 41.9865 84.24C42.363 84.2108 42.4845 83.5428 42.194 83.0996C42.0616 82.8972 40.7543 81.8408 39.2891 80.7521C36.3888 78.597 34.4511 76.8326 33.9518 75.8922C33.7163 75.4488 33.632 75.0176 33.6287 74.2417C33.623 72.9097 34.1281 71.8074 35.2063 70.799C36.8977 69.2169 38.9808 68.8422 40.936 69.7684C42.3495 70.438 43.0711 70.9649 44.8382 72.6176C46.7974 74.4499 46.9596 74.5577 47.4316 74.3427C47.8147 74.1682 48.5871 73.1588 49.7986 71.2499C50.3849 70.326 50.7877 69.9107 51.9743 69.0065C53.4709 67.866 54.4464 66.9304 54.6004 66.4877C54.7142 66.161 54.4584 65.952 53.163 65.3138C52.5768 65.025 52.0705 64.7034 52.0379 64.5993C51.9797 64.4128 52.444 63.9323 53.6521 62.9288C54.4163 62.2941 54.9702 61.1521 56.2072 57.6614C56.7188 56.2172 58.0007 52.8749 59.0557 50.234C61.323 44.558 61.4968 44.047 61.5118 43.0112C61.5325 41.5758 60.8928 41.1764 56.8356 40.0906C50.9945 38.5277 48.2984 37.6383 43.9004 35.8231C35.1753 32.2221 32.9086 31.7193 32.3493 33.2606C32.0174 34.1752 31.8094 34.4768 31.4154 34.6154C30.7711 34.842 30.5482 34.5332 30.5482 33.4137C30.5482 32.7625 30.6671 32.1443 30.9234 31.4637C31.5426 29.8185 31.3945 29.3898 30.0883 29.0461C29.3087 28.8408 29.0752 28.9582 28.6695 29.7588C28.2705 30.5461 27.9416 30.8028 27.3321 30.8028C26.414 30.8028 26.0048 29.4776 26.6641 28.6395C26.8386 28.4175 27.5233 27.9213 28.1854 27.5364C30.0229 26.4689 30.4819 25.8849 30.1544 25.0313C30.0399 24.7328 29.0045 24.2018 27.6973 23.771C25.9808 23.2053 25.248 22.5792 25.6535 22.0246C25.883 21.7107 26.4563 21.6846 29.1228 21.8663C30.8026 21.9808 30.948 21.9688 31.2913 21.6885C31.7552 21.3096 31.7561 20.6872 31.2946 19.4216C30.7197 17.8452 31.097 16.3174 32.0336 16.4287C32.7223 16.5105 33.1111 17.5902 33.331 20.0314C33.4196 21.0125 33.4352 21.0433 33.9357 21.2242C34.395 21.3903 34.4495 21.4691 34.4495 21.9668C34.4495 22.4777 34.3943 22.5502 33.7776 22.8487C33.408 23.0277 32.8051 23.5083 32.4378 23.9168C31.578 24.8731 31.2473 25.8457 31.3235 27.1946C31.4032 28.6033 31.9603 29.5153 33.0998 30.102C33.8284 30.4772 34.0466 30.5193 34.9746 30.464C37.4002 30.3194 38.9158 28.8876 39.1848 26.4869C39.3409 25.0959 39.0234 24.376 37.9094 23.5947C37.0822 23.0143 36.7002 22.5118 36.7002 22.0039C36.7002 21.8112 36.8342 21.7887 37.4879 21.8715C38.8307 22.0414 41.1388 22.6393 44.6527 23.7278C47.2067 24.5187 49.3026 25.0338 53.2601 25.8429C60.0851 27.2382 60.5303 27.3469 63.1836 28.267C66.8469 29.5375 68.1164 29.441 68.8581 27.8353C69.3377 26.7975 69.2952 24.1094 68.7557 21.3498C67.6965 15.9322 67.4478 13.0334 67.9257 11.6717L68.1364 11.0716L76.1634 10.9965C80.5782 10.9553 84.3053 10.8649 84.4457 10.7958C84.5862 10.7264 84.7763 10.4417 84.8684 10.1626C85.0151 9.71828 84.9701 9.4662 84.506 8.12837L83.9763 6.60133L85.2318 6.69001C86.8982 6.8075 90.6761 7.46831 92.81 8.01538C94.4558 8.43732 95.6691 8.95213 95.7689 9.27098C95.7947 9.35351 95.2934 9.57948 94.6547 9.77319C92.9123 10.3015 91.9949 10.809 90.8269 11.8902C89.7682 12.8705 89.1745 13.8236 88.9765 14.8603C88.9147 15.1842 88.7972 15.3479 88.6266 15.3479C88.4854 15.3479 87.6996 14.8696 86.8804 14.285C85.0963 13.0118 84.0139 12.4427 82.9451 12.2157C81.838 11.9807 79.14 12.0094 77.9131 12.2694C73.8555 13.1292 71.0301 16.7284 70.6701 21.496C70.4808 24.0057 71.1049 25.8768 72.6907 27.5528C76.1391 31.1976 82.1707 32.1639 86.5833 29.7788C87.6863 29.1825 89.0039 27.8882 89.6084 26.8072C89.9418 26.2111 90.2401 25.8513 90.4008 25.8513C90.5426 25.8513 90.8912 26.0925 91.1757 26.3875L91.6927 26.9238L91.3384 27.2128C91.1437 27.3717 90.8649 27.5018 90.7192 27.5018C90.4026 27.5018 90.0545 27.879 90.1814 28.0844C90.2309 28.1645 90.5069 28.3078 90.7945 28.4028C91.3664 28.5914 91.4091 28.7416 91.1534 29.6622L90.9911 30.2472L89.2844 30.1557C87.3362 30.0513 86.762 30.1821 86.4406 30.8036C86.1499 31.3657 85.7654 34.392 85.7676 36.0997C85.7696 37.6759 85.9763 38.5867 86.6771 40.107C87.5037 41.9004 88.0964 42.0377 89.8075 40.8322C91.102 39.92 91.6596 39.8164 93.7388 40.1004C94.4821 40.2021 95.3219 40.2417 95.6048 40.1886C96.071 40.1013 96.1191 40.0443 96.1191 39.5812C96.1191 39.1539 96.0042 38.9771 95.416 38.5003C93.8078 37.1964 93.2574 36.5915 92.7432 35.5639C92.3205 34.7188 92.2179 34.3405 92.2179 33.6267C92.2179 32.562 92.5693 32.1054 93.5038 31.956C94.3357 31.8229 94.6264 31.5628 94.7145 30.8726C94.7873 30.3033 94.7594 30.2549 94.0687 29.7512C92.6623 28.7254 93.0119 28.5565 96.5477 28.5538C98.015 28.5527 98.9918 28.4769 99.6116 28.3164C101.535 27.8179 103.344 26.5856 104.594 24.9228C105.607 23.5753 105.859 23.0055 106.186 21.3159C106.57 19.3333 106.656 19.1969 107 20.021C107.233 20.581 107.288 21.3302 107.379 25.2511C107.47 29.1393 107.528 29.9516 107.767 30.6528C108.01 31.3667 108.105 31.4847 108.474 31.5268C109.389 31.6317 110.494 30.4892 112.365 27.5018C114.062 24.7936 116.864 21.7255 120.127 19.0022C123.217 16.4233 127.975 12.8042 129.271 12.0469C131.091 10.9827 131.698 10.4258 131.573 9.93525C131.522 9.73493 130.885 8.97779 130.157 8.25261C129.428 7.52743 128.792 6.77269 128.742 6.57538C128.534 5.74636 129.163 5.21849 129.903 5.60081C130.097 5.70075 130.904 6.41542 131.697 7.18907C133.72 9.1631 134.026 9.11343 134.768 6.69031C135.271 5.04879 135.972 4.41109 136.792 4.84983ZM170.804 9.44249C171.499 9.69097 172.043 10.2622 172.043 10.7443C172.043 11.2701 170.708 12.3873 169.186 13.1343C168.406 13.5175 166.933 14.0859 165.913 14.3972L164.059 14.9632L164.155 15.6432C164.346 16.9854 164.427 18.4841 164.331 18.8668C164.21 19.3471 163.284 20.3936 162.722 20.6844C161.326 21.4062 159.139 20.084 159.139 18.5178C159.139 18.0398 159.5 17.5086 161.29 15.3479C162.617 13.7465 165.179 11.0963 165.951 10.5275C166.789 9.91049 167.001 9.951 166.899 10.709C166.782 11.5784 167.13 11.8968 168.197 11.8968C169.429 11.8968 170.133 11.2177 169.803 10.3492C169.696 10.0677 169.48 9.91454 169.012 9.787C167.975 9.50521 167.945 9.4932 168.038 9.40017C168.215 9.22357 169.129 9.07892 169.643 9.14629C169.931 9.18411 170.454 9.31735 170.804 9.44249ZM99.7066 11.2809C102.003 11.9956 103.615 13.7636 104.237 16.2482C104.533 17.4342 104.494 20.0144 104.163 21.1183C103.349 23.8327 101.591 25.5626 98.9531 26.2448C97.6526 26.5811 95.4023 26.5784 94.2435 26.2391C92.9978 25.8744 91.9392 24.7967 91.4914 23.4371C90.8229 21.4085 90.4187 17.4192 90.7078 15.7046C91.09 13.4392 92.5792 11.9565 95.2188 11.2135C96.29 10.9119 98.6344 10.9472 99.7066 11.2809ZM132.631 11.4465C132.262 11.5954 132.068 12.0622 132.2 12.4802C132.25 12.6361 132.555 12.9385 132.878 13.1524C133.733 13.7182 134.022 14.9306 133.564 16.0279C133.293 16.6761 132.891 16.7071 132.395 16.1181C131.987 15.6321 131.802 15.2091 131.444 13.9354C131.133 12.8279 130.632 12.2779 130.06 12.4158C129.214 12.6198 129.097 13.2427 129.566 15.0613C130.14 17.2865 131.029 18.6464 132.103 18.9431C133.887 19.4357 135.895 17.1913 135.923 14.6727C135.937 13.4816 135.697 12.8208 135.008 12.1478C134.248 11.406 133.373 11.1475 132.631 11.4465ZM82.6958 14.3749C85.6062 15.1146 87.7961 17.1315 88.7216 19.9244C89.2577 21.5423 89.3056 23.7761 88.8259 24.8009C87.2591 28.148 83.7508 29.8142 79.78 29.0966C77.8082 28.7403 76.2081 27.8967 74.8204 26.4818C73.2928 24.9243 72.8388 23.9803 72.7486 22.1754C72.5555 18.3109 74.6563 15.3437 78.2634 14.3863C79.3552 14.0965 81.5783 14.0908 82.6958 14.3749ZM99.7203 19.6556C99.2418 19.8316 98.97 20.2092 98.97 20.6979C98.97 21.6361 99.95 22.1178 100.737 21.5663C101.237 21.2164 101.203 20.275 100.675 19.8603C100.272 19.5428 100.117 19.5098 99.7203 19.6556ZM85.7717 21.8283C85.1562 22.489 85.5388 23.5123 86.4687 23.6919C87.4443 23.8802 88.1292 22.5128 87.4164 21.8C87.0037 21.3873 86.169 21.4017 85.7717 21.8283ZM36.1578 24.0639C37.3777 25.0234 37.2528 26.872 35.8869 28.0712C34.3392 29.4302 32.5023 28.2351 32.9606 26.1671C33.1666 25.2373 33.7285 24.4218 34.4117 24.061C35.1429 23.6751 35.6646 23.676 36.1578 24.0639ZM89.4067 36.9546C90.0838 37.3041 90.7174 37.8257 90.7174 38.0335C90.7174 38.1028 90.498 38.2934 90.2297 38.4569C89.7019 38.7788 88.771 38.8486 88.3084 38.6008C87.9018 38.3833 87.5664 37.6675 87.5664 37.0175V36.4652L88.1688 36.5459C88.5002 36.5903 89.0573 36.7743 89.4067 36.9546ZM97.1971 69.7777C96.1839 70.3247 94.6276 71.6281 93.6583 72.7412C92.5796 73.98 92.3679 74.3177 92.3679 74.8003C92.3679 75.2069 92.3883 75.217 93.2208 75.217C94.3705 75.217 95.0551 74.8594 96.7025 73.3988C98.8294 71.5134 99.6007 70.2792 99.0396 69.6592C98.6729 69.2539 98.0986 69.291 97.1971 69.7777ZM97.5396 74.8264C97.2068 74.9307 96.5552 75.2587 96.0915 75.5553C95.0601 76.2151 93.1764 77.9701 92.8758 78.5513C92.6577 78.9733 92.6616 78.9808 93.2103 79.2101C94.2785 79.6564 95.8073 78.9688 97.3554 77.3459C98.0361 76.6322 98.82 75.4616 98.82 75.1586C98.82 75.0447 98.3575 74.6159 98.2467 74.6268C98.1905 74.6324 97.8724 74.7221 97.5396 74.8264ZM66.3346 93.1628C67.3071 93.2901 67.3195 93.3003 67.1362 93.8264C66.7528 94.9262 64.744 96.6216 60.7078 99.2515C59.5112 100.031 57.6989 101.255 56.6804 101.97C50.0294 106.644 42.6242 110.346 36.7914 111.913C30.1655 113.693 20.9864 114.13 16.1249 112.898C9.98659 111.342 4.74797 108.07 3.12176 104.776C2.76899 104.062 2.71468 103.77 2.71693 102.601C2.71903 101.474 2.77815 101.139 3.07329 100.582C3.82908 99.1538 6.02293 97.2805 7.71022 96.6222C8.06478 96.4839 8.83678 96.3023 9.42586 96.2187C11.518 95.9221 13.7869 96.4727 18.2367 98.3573C22.1789 100.027 24.6802 100.844 27.988 101.542C30.8048 102.137 32.2609 102.268 33.9497 102.081C37.7102 101.662 43.6672 99.8227 47.5787 97.8716C49.8968 96.7155 50.6086 96.2726 53.223 94.359C54.8128 93.1956 55.1393 93.1663 58.4483 93.8913C61.671 94.5975 62.8736 94.695 63.4957 94.3011C63.7499 94.1401 64.0761 93.7591 64.2208 93.4544C64.4677 92.9339 64.517 92.9054 65.034 92.9825C65.3367 93.0276 65.922 93.1088 66.3346 93.1628ZM114.799 117.356C114.096 117.786 112.391 119.708 111.626 120.936C110.712 122.402 110.297 123.466 110.001 125.108C109.866 125.851 109.654 126.779 109.528 127.17C109.327 127.798 109.266 127.864 109.015 127.729C108.858 127.645 107.895 126.582 106.874 125.367C105.853 124.152 104.551 122.718 103.98 122.182C102.498 120.79 100.596 119.87 99.8183 120.168C99.425 120.319 99.7303 120.718 102.105 123.158C106.084 127.245 107.071 128.491 108.348 131.035C109.307 132.945 110.148 134.161 110.588 134.271C111.201 134.425 111.637 134.281 111.839 133.857C112.004 133.512 111.977 133.188 111.653 131.624C111.434 130.566 111.274 129.295 111.274 128.608C111.274 125.198 113.218 120.263 114.905 119.391L115.371 119.149L115.279 120.178C115.229 120.744 114.89 122.422 114.527 123.907C114.162 125.398 113.641 128.165 113.364 130.081C112.744 134.372 112.737 134.337 114.234 134.333C115.509 134.328 117.104 133.974 120.352 132.974C125.503 131.388 125.713 131.348 128.83 131.342C131.625 131.337 132.577 131.461 133.068 131.898C134.363 133.049 130.501 134.528 124.138 135.317C123.592 135.384 123.362 135.496 123.171 135.789C122.934 136.15 122.935 136.184 123.19 136.371C123.649 136.706 124.865 136.886 126.699 136.891C127.664 136.893 130.176 136.99 132.281 137.107C136.434 137.337 136.525 137.354 140.458 138.638C142.692 139.367 144.439 139.645 144.429 139.27C144.412 138.606 143.749 138.026 142.124 137.254C141.484 136.951 140.923 136.605 140.877 136.485C140.749 136.151 141.093 135.536 141.408 135.536C141.839 135.536 144.727 137.01 146.976 138.376C149.221 139.74 149.727 139.863 149.805 139.061C149.863 138.477 149.102 137.309 148.272 136.708C147.366 136.051 145.826 135.362 143.371 134.516C140.925 133.673 140.045 133.492 139.46 133.715C138.974 133.901 138.661 134.732 138.8 135.471C138.915 136.088 139.159 136.069 136.111 135.678C133.801 135.381 133.338 135.273 133.747 135.127C134.285 134.935 135.38 134.057 135.566 133.667C136.002 132.754 135.259 131.244 133.97 130.427C132.992 129.806 131.573 129.534 129.325 129.535C127.163 129.537 126.443 129.633 123.098 130.367C121.803 130.652 120.599 130.885 120.423 130.885C119.637 130.885 120.181 130.48 126.571 126.308C129.77 124.22 130.829 123.296 131.07 122.384C131.295 121.528 131.084 121.031 130.368 120.731C129.274 120.272 126.009 120.718 123.757 121.633C122.342 122.208 121.011 123.163 118.393 125.481C117.087 126.637 115.965 127.584 115.9 127.584C115.718 127.584 115.946 126.59 117.07 122.482C117.378 121.358 117.464 120.681 117.481 119.282C117.499 117.686 117.472 117.487 117.21 117.294C116.784 116.982 115.354 117.018 114.799 117.356ZM99.6031 122.75C99.2961 122.799 99.271 122.861 99.3609 123.356C99.5224 124.245 100.069 125.18 101.219 126.538C102.455 127.996 102.851 128.634 102.519 128.634C102.154 128.634 101.153 128.234 98.9837 127.22C97.8262 126.679 96.3874 126.099 95.7865 125.93C94.4014 125.541 92.0686 125.385 91.1974 125.623C90.6316 125.777 90.5644 125.839 90.652 126.128C90.7069 126.31 90.8961 126.616 91.0723 126.809C91.4586 127.231 93.8103 128.655 96.5693 130.138C98.7031 131.284 100.112 132.178 100.475 132.616C100.675 132.857 100.662 132.869 100.319 132.766C100.114 132.704 99.0338 132.261 97.9197 131.782C95.0749 130.56 93.9197 130.252 93.2055 130.526C92.7879 130.686 92.9357 131.275 93.5227 131.791C94.1703 132.359 95.0197 132.755 97.6946 133.733C98.7675 134.126 100.556 134.867 101.67 135.38C104.053 136.478 105.643 137.037 106.386 137.037H106.923V136.354C106.923 135.979 106.825 135.482 106.705 135.25C106.354 134.572 104.575 133.322 100.101 130.611C97.794 129.213 95.8808 127.994 95.8499 127.902C95.8192 127.809 95.9178 127.734 96.0692 127.735C96.6083 127.738 98.0228 128.526 100.957 130.458C104.925 133.072 105.979 133.613 106.982 133.555C107.696 133.514 107.751 133.482 107.796 133.091C107.857 132.557 107.584 132.102 105.684 129.569C104.834 128.436 103.624 126.732 102.995 125.783C101.209 123.088 100.646 122.584 99.6031 122.75ZM126.942 123.545C126.61 123.912 117.327 130.134 117.111 130.134C116.568 130.134 118.555 128.109 120.394 126.789C122.806 125.057 126.141 123.247 126.94 123.236C127.22 123.232 127.22 123.238 126.942 123.545ZM153.356 129.722C153.316 129.825 153.545 130.787 153.864 131.86C154.183 132.933 154.836 135.35 155.317 137.231C155.797 139.112 156.264 140.753 156.356 140.878C156.628 141.251 157.003 140.971 157.724 139.855C158.654 138.418 161.055 135.254 161.61 134.735C161.86 134.501 162.572 133.969 163.19 133.553C164.497 132.674 165.377 131.879 165.679 131.305C165.97 130.75 165.961 130.735 165.372 130.735C164.143 130.735 161.419 132.152 159.797 133.636C159.27 134.118 158.485 135.025 158.052 135.652C157.618 136.279 157.187 136.816 157.094 136.846C156.975 136.883 156.902 136.295 156.851 134.905C156.768 132.624 156.552 131.847 155.738 130.896C155.257 130.334 153.994 129.534 153.588 129.534C153.5 129.534 153.396 129.619 153.356 129.722ZM49.0898 129.92C48.9304 130.08 48.8541 130.434 48.8541 131.014C48.8541 132.611 49.4624 134.287 51.0577 137.084L51.8975 138.556L51.6035 138.959C51.1441 139.589 51.0913 139.865 51.3237 140.421C51.5059 140.857 51.6145 140.938 52.0184 140.938C52.3887 140.938 52.603 140.81 52.9639 140.375C53.8919 139.256 55.9809 137.292 57.0171 136.564C57.5996 136.155 58.8518 135.402 59.7999 134.891C61.8763 133.771 62.8544 132.917 62.7824 132.288C62.7374 131.895 62.6777 131.856 62.0457 131.815C60.6904 131.727 59.0159 132.618 56.4315 134.803C55.115 135.916 53.5774 137.037 53.3672 137.037C53.2226 137.037 51.8441 133.675 51.2619 131.902C50.9018 130.805 50.6705 130.348 50.332 130.063C49.8144 129.628 49.4268 129.583 49.0898 129.92ZM146.155 130.427C145.987 130.495 145.769 130.649 145.67 130.768C145.387 131.108 146.124 132.121 147.709 133.569C148.466 134.262 149.586 135.477 150.197 136.27C151.457 137.906 152.3 138.756 152.816 138.911L153.17 139.018L153.11 137.84C153.019 136.059 152.576 135.296 150.217 132.864C147.875 130.449 147.16 130.02 146.155 130.427ZM67.1721 132.324C66.3247 132.551 60.5753 135.453 58.9452 136.475C57.286 137.516 56.52 138.743 57.2767 139.148C58.1014 139.589 59.7505 138.838 62.696 136.679C63.7483 135.908 65.3145 134.929 66.1766 134.504C67.863 133.672 68.8104 132.917 68.8104 132.405C68.8104 132.017 68.3897 131.996 67.1721 132.324ZM169.148 132.465C168.835 132.58 167.586 133.2 166.374 133.843C163.888 135.159 162.868 136.004 162.606 136.962C162.3 138.082 162.331 138.126 163.201 137.783C163.62 137.618 165.034 136.874 166.344 136.13C169.534 134.319 170.39 133.936 171.884 133.653C174.007 133.251 174.142 132.894 172.334 132.467C171.15 132.188 169.905 132.187 169.148 132.465ZM15.8307 133.129C14.4853 133.536 13.8848 134.854 14.7385 135.525C15.2681 135.942 15.612 135.919 17.1568 135.366C18.8597 134.757 20.2425 134.71 21.2453 135.228C22.1261 135.684 22.9626 136.262 24.6496 137.58C26.2963 138.867 26.9172 139.109 28.335 139.015C28.6618 138.993 28.7477 138.913 28.7477 138.63C28.7477 138.434 28.6432 138.187 28.5155 138.081C28.388 137.975 28.1392 137.686 27.9629 137.438L27.6423 136.988L28.8402 137.08C30.8312 137.234 33.345 138.15 35.7327 139.592C36.4115 140.002 37.1409 140.338 37.3535 140.338C37.7415 140.338 38.0506 139.979 38.0506 139.528C38.0506 139.083 37.1349 138.262 35.9545 137.648C34.4049 136.842 34.2973 136.665 35.4411 136.804C36.8112 136.97 38.2167 137.502 41.191 138.978C44.494 140.617 45.4421 140.769 44.9488 139.578C44.4572 138.391 40.1549 136.294 36.0332 135.232C33.1268 134.483 32.1988 134.49 32.1988 135.259C32.1988 135.723 31.8115 135.748 30.2184 135.387C28.922 135.093 28.4714 135.059 26.9675 135.142L25.2215 135.238L24.125 134.421C22.9104 133.515 22.468 133.379 19.9699 133.138C18.2029 132.967 16.3761 132.963 15.8307 133.129ZM41.6518 133.617C41.6518 134.08 42.3797 134.893 43.6828 135.887C44.4226 136.451 45.568 137.398 46.2282 137.992C47.9802 139.569 48.7339 140.153 49.3533 140.412L49.9044 140.642L49.9038 139.927C49.9031 138.943 49.5798 138.47 47.5033 136.416C46.0875 135.015 45.5194 134.562 44.6328 134.127C43.3659 133.504 41.6518 133.211 41.6518 133.617ZM173.919 134.041C172.317 134.274 169.943 135.586 169.943 136.238C169.943 136.428 170.097 136.449 170.88 136.365C172.321 136.21 174.825 135.851 176.29 135.589C177.579 135.358 177.611 135.342 177.566 134.956C177.528 134.628 177.393 134.52 176.77 134.318C175.782 133.998 174.84 133.907 173.919 134.041ZM88.0916 134.427C87.9265 134.469 87.15 134.667 86.366 134.865C83.4506 135.603 81.1859 136.506 80.1961 137.326C79.6134 137.809 79.1637 138.6 79.1637 139.142C79.1637 139.447 79.2147 139.468 79.763 139.38C80.0925 139.327 81.2783 138.879 82.398 138.383C86.0032 136.788 85.6411 136.844 92.9984 136.747C97.3647 136.689 99.4583 136.609 99.571 136.496C99.9335 136.133 96.849 135.174 93.8453 134.716C92.2417 134.472 88.6206 134.29 88.0916 134.427ZM73.4619 134.592C71.2852 134.973 66.4112 136.588 65.1559 137.345C64.1247 137.966 63.6266 138.639 63.7712 139.215C63.8479 139.521 63.9565 139.587 64.3791 139.587C65.0232 139.587 66.8482 139.016 68.7656 138.214C69.5743 137.875 71.1236 137.314 72.2086 136.966C74.4546 136.245 75.4614 135.717 75.7867 135.088C75.911 134.847 76.0127 134.614 76.0127 134.568C76.0127 134.474 74.0301 134.493 73.4619 134.592ZM75.4638 137.185C73.1303 137.796 70.9199 138.924 70.576 139.679C70.4224 140.017 70.4383 140.1 70.692 140.288C71.1089 140.598 71.9526 140.449 74.3511 139.643C77.3387 138.639 78.7136 137.856 78.7136 137.159C78.7136 136.92 78.5791 136.888 77.6257 136.895C77.0273 136.899 76.0546 137.03 75.4638 137.185Z" fill="black"/>
</svg>
