<svg width="204" height="108" viewBox="0 0 204 108" fill="none" xmlns="http://www.w3.org/2000/svg">
<path fill-rule="evenodd" clip-rule="evenodd" d="M111.137 0.893069C110.801 1.29766 110.241 2.90037 109.892 4.45478C109.542 6.00985 108.97 7.56752 108.621 7.91665C108.209 8.32842 106.184 8.09089 102.86 7.23994C100.04 6.51885 95.6807 5.83039 93.1716 5.71032L88.6102 5.49236L88.1384 9.71121C87.3696 16.5854 83.6187 32.8401 82.615 33.6461C82.1041 34.0565 80.3049 34.5988 78.6161 34.852C73.8497 35.5659 70.0381 37.0662 65.9635 39.8337C59.5716 44.1746 56.4836 50.156 55.7299 59.6554C55.1726 66.6882 55.9727 73.6687 57.8769 78.3835L59.4508 82.28L57.0572 83.2882C51.5685 85.5996 35.9467 84.7558 22.3831 81.4166C15.2355 79.6566 10.3758 80.0129 6.21245 82.6023C-1.94986 87.6786 -1.61835 94.4895 7.00141 98.7951C10.6173 100.601 11.5061 100.756 19.6116 100.993L28.3312 101.247L26.598 103.056C23.9049 105.868 25.826 106.108 29.558 103.426C32.909 101.019 35.5728 100.187 32.9658 102.362C31.6404 103.468 30.9813 105.009 31.8335 105.009C32.0182 105.009 33.7306 104.128 35.6387 103.051C39.7068 100.755 42.9285 100.273 39.4914 102.474C38.3246 103.221 37.3706 104.243 37.3706 104.747C37.3706 106.074 37.7719 105.937 42.3412 103.051C44.6147 101.616 46.9959 100.446 47.6322 100.452C48.4407 100.46 48.1497 100.874 46.6697 101.821C45.5035 102.568 44.5488 103.427 44.5488 103.729C44.5488 104.96 45.9669 105.02 47.6531 103.86C51.7427 101.046 54.6786 99.5006 53.7546 100.648C52.0233 102.801 53.7441 102.641 58.4341 100.216C61.0261 98.8761 62.6014 98.1582 61.9345 98.6209C58.9621 100.682 57.6002 101.884 57.6002 102.446C57.6002 103.541 59.0084 103.083 62.8912 100.724C64.9983 99.4444 67.0187 98.5811 67.3815 98.8049C68.2344 99.3322 68.2396 101.093 67.3887 101.093C67.0298 101.093 66.7361 101.828 66.7361 102.725C66.7361 104.828 67.1218 104.78 69.3464 102.399C70.352 101.322 71.7915 100.441 72.5446 100.441C74.195 100.441 74.2922 101 72.8298 102.069C72.1609 102.558 71.9097 103.293 72.1753 103.984C72.5694 105.011 72.7573 104.987 74.4018 103.69C76.0939 102.356 76.2114 102.344 76.4248 103.479C76.5494 104.141 76.8731 104.918 77.1432 105.205C77.7762 105.877 79.9702 102.57 79.4501 101.728C78.6657 100.459 81.5481 101.135 83.7029 102.725C86.0221 104.436 87.6209 104.733 89.4559 103.794C90.0602 103.484 91.3627 103.039 92.3494 102.803C93.708 102.478 94.1439 102.615 94.1439 103.365C94.1439 103.91 94.4441 104.356 94.8109 104.356C95.4497 104.356 102.627 97.52 102.627 96.9112C102.627 96.7493 101.976 96.5222 101.18 96.4081C99.7638 96.2038 99.7704 96.1738 101.476 95.0618L103.221 93.9237L103.89 96.348C104.444 98.354 104.381 98.8721 103.524 99.3518C102.954 99.6702 101.565 100.76 100.437 101.773C98.7967 103.247 98.5481 103.781 99.1968 104.439C99.848 105.099 100.395 104.891 101.964 103.388L103.919 101.514L104.626 103.541C105.716 106.668 111.838 108.174 114.738 106.029C115.606 105.387 116.889 105.212 118.817 105.471C121.047 105.771 122.013 105.566 123.483 104.479C124.502 103.725 126.116 102.913 127.071 102.673C129.668 102.021 131.103 99.479 130.21 97.1122C129.595 95.4834 129.651 95.2204 130.614 95.2204C131.229 95.2204 132.084 94.868 132.515 94.4373C133.025 93.927 133.298 93.8996 133.298 94.3577C133.298 94.744 132.857 95.4259 132.319 95.8729C131.246 96.7637 130.977 99.1358 131.948 99.1358C133.307 99.1358 137.866 91.3487 137.866 89.0282C137.866 87.2917 136.107 84.7793 134.892 84.7793C133.594 84.7793 133.695 84.374 135.637 81.8284C137.562 79.3049 139.352 73.98 138.83 72.3342C138.637 71.724 138.839 70.4346 139.279 69.4674C139.937 68.024 140.378 67.7806 141.747 68.1082C145.529 69.0139 152.203 69.2299 155.373 68.5499C162.322 67.0601 166.579 62.1861 166.579 55.7211C166.579 51.9147 164.733 48.3132 160.475 43.8111C156.848 39.9753 154.218 38.3915 147.654 36.088L143.413 34.5995L142.386 30.8133C140.303 23.1352 134.945 14.6792 129.056 9.77712C124.787 6.22324 111.982 -0.124936 111.137 0.893069ZM119.772 7.21318C126.974 10.8343 133.431 17.2458 136.83 24.1506C138.171 26.8757 139.427 30.2945 139.622 31.7478L139.976 34.3913L137.127 34.8651C131.678 35.7708 129.383 37.7527 129.383 41.5532C129.383 44.0004 131.669 46.1206 134.603 46.392C136.483 46.5669 136.922 46.8925 137.082 48.2355C137.189 49.1328 138.102 50.6011 139.11 51.4984C140.12 52.3956 141.27 53.7523 141.667 54.5132C142.777 56.6406 146.512 58.178 148.622 57.376C149.742 56.9499 150.765 56.9401 151.527 57.3486C152.174 57.6945 152.871 57.81 153.077 57.6051C153.708 56.9741 150.012 50.8778 148.747 50.464C147.225 49.9655 146.533 50.6376 147.535 51.64C147.96 52.0648 148.307 52.9405 148.307 53.5866C148.307 55.3629 145.305 55.1123 144.073 53.2335C143.168 51.8514 143.179 51.4174 144.19 48.6891C144.805 47.0296 145.115 45.4784 144.878 45.2415C144.079 44.4428 142.592 45.5137 141.699 47.5327C141.21 48.6375 140.588 49.5407 140.317 49.5407C139.301 49.5407 139.873 45.7388 141.129 44.142C141.847 43.2297 142.434 42.0152 142.434 41.4436C142.434 39.9505 140.554 40.1639 139.223 41.8084C138.389 42.8368 137.315 43.2297 135.202 43.2767C132.53 43.3367 132.304 43.2114 132.114 41.5624C131.95 40.1411 132.343 39.5192 134.072 38.4653C137.044 36.6531 141.368 36.7745 147.637 38.8464C157.326 42.0485 164.303 49.5942 163.756 56.2778C163.443 60.0972 161.864 62.3812 158.037 64.5497C155.579 65.9429 154.333 66.1811 149.504 66.1811C144.614 66.1811 143.571 65.9762 141.804 64.6691C140.679 63.8378 139.462 63.2563 139.1 63.377C138.737 63.4978 137.754 65.2851 136.916 67.3492C136.077 69.4126 134.638 72.0875 133.719 73.2935C131.588 76.0864 124.584 82.1553 121.355 84.006L118.874 85.4279L117.97 83.2666C117.473 82.0777 116.385 78.5049 115.552 75.3269C114.037 69.551 112.415 67.237 112.418 70.8581C112.42 74.2044 115.675 84.9418 117.811 88.6477C118.962 90.6472 120.386 93.1648 120.975 94.2415C121.878 95.8958 122.436 96.1992 124.571 96.1992C126.738 96.1992 127.13 96.4211 127.318 97.7569C127.683 100.336 126.043 100.623 123.733 98.3834C121.22 95.948 119.713 96.3996 121.313 99.1077C121.911 100.12 122.218 101.421 121.996 102C121.436 103.461 118.73 103.315 117.31 101.746C115.713 99.9809 114.483 100.104 113.987 102.078C113.553 103.808 111.703 104.622 109.056 104.247C107.743 104.061 107.463 103.556 107.122 100.752C106.902 98.9491 106.205 95.7189 105.575 93.574C104.945 91.4283 104.077 87.618 103.648 85.1062C103.072 81.7436 102.576 80.4828 101.768 80.3275C100.379 80.0599 100.347 82.2728 101.662 87.7159C102.182 89.8693 102.612 91.8518 102.617 92.1207C102.641 93.2666 100.952 92.4352 98.3099 89.9998C96.007 87.877 94.9988 87.3896 92.9119 87.3896H90.3447L92.0022 83.2131C93.34 79.8413 93.571 78.4481 93.2016 75.984C92.4623 71.0558 86.9866 65.8346 82.5935 65.8692C78.588 65.9005 72.1563 70.231 73.7493 71.8239C74.2707 72.3453 75.0152 72.1502 76.477 71.1093C81.0319 67.8661 85.1157 68.0931 88.6526 71.7873C90.2677 73.4742 90.5496 74.2847 90.5202 77.156C90.4811 81.0296 87.1386 88.1237 84.5545 89.8171C82.9994 90.8358 82.5928 92.2499 83.6637 92.9122C84.0011 93.1204 85.2397 92.706 86.4156 91.9908C91.5748 88.8533 97.4068 89.8824 97.4068 93.9302C97.4068 96.1868 96.7549 96.4165 95.6005 94.5678C95.1521 93.85 94.3443 93.2627 93.8046 93.2627C93.0254 93.2627 92.9093 93.7997 93.2401 95.8697C93.5247 97.6492 93.3726 98.8186 92.7611 99.556C91.9591 100.522 91.7901 100.368 91.1513 98.091C90.7199 96.5536 89.9838 95.4579 89.2895 95.3228C88.325 95.1355 88.2101 95.4168 88.5756 97.0795C89.39 100.789 86.7464 103.191 84.8416 100.472C83.541 98.6144 80.9288 97.8319 75.9928 97.8209C70.9967 97.8091 70.3657 97.5292 69.7608 95.0572C69.4129 93.6353 68.945 93.2627 67.5068 93.2627C66.5084 93.2627 65.4127 93.5191 65.0721 93.8317C64.3732 94.4738 57.7418 96.0491 50.4219 97.3125C47.2694 97.8561 39.4888 98.1569 28.5609 98.1569C12.0608 98.1569 11.4989 98.1139 8.13622 96.5947C3.55455 94.5241 2.27095 92.259 3.82406 88.9844C4.46879 87.6271 6.02973 86.0374 7.65332 85.086C11.728 82.6983 15.4502 82.415 21.833 84.0079C28.756 85.7359 43.0355 87.6016 48.2417 87.4594C54.2407 87.2949 62.8207 84.8883 62.8207 83.3697C62.8207 82.9364 62.2066 81.3122 61.4555 79.761C56.56 69.6476 57.3 53.6068 63.0041 46.2132C66.7798 41.3196 72.8963 38.4026 84.1825 36.1128C85.023 35.9425 85.7774 35.1992 85.9634 34.3587C86.1409 33.5567 87.153 29.0827 88.2134 24.4168C89.2732 19.751 90.3408 14.2446 90.5861 12.1812L91.0312 8.42891H94.0839C95.763 8.42891 99.7299 9.18067 102.899 10.0995C106.068 11.0183 109.079 11.6095 109.589 11.4138C110.409 11.0986 111.31 9.39145 112.625 5.6555C113.189 4.05476 113.72 4.17026 119.772 7.21318ZM106.869 12.6654C106.51 12.7848 105.414 13.0595 104.434 13.2755C101.919 13.8296 98.0685 17.4089 96.6661 20.4955C94.9851 24.1969 95.0947 28.5919 96.9369 31.3255C100.368 36.4175 107.995 38.0685 113.513 34.9134C115.013 34.0552 116.408 33.5208 116.612 33.725C117.359 34.4716 116.958 36.4893 116.063 36.4893C114.695 36.4893 111.909 40.1013 111.139 42.8721C109.991 47.0067 110.3 51.069 111.948 53.5226C113.166 55.3361 113.912 55.7753 116.045 55.9339C119.444 56.1857 123.755 54.7619 124.038 53.2936C124.159 52.6658 123.667 51.4011 122.945 50.483C120.831 47.7963 119.633 43.1187 119.859 38.447C120.154 32.3664 120.246 32.2548 124.989 32.2065C130.479 32.1504 133.032 30.7643 133.954 27.3397C135.76 20.6326 131.387 14.302 124.946 14.302C123.919 14.302 121.654 15.0231 119.914 15.9041L116.75 17.5055L114.255 15.2515C112.882 14.0116 111.197 12.9969 110.51 12.9969C109.822 12.9969 108.868 12.8736 108.391 12.7222C107.912 12.5714 107.228 12.5453 106.869 12.6654ZM111.606 16.2565C116.105 18.9992 117.425 23.9032 115.063 29.1049C113.572 32.3879 111.013 33.879 106.869 33.879C101.686 33.879 97.3924 30.5033 97.4211 26.4496C97.4446 23.1547 99.6718 19.1278 102.676 16.9527C105.911 14.6087 108.564 14.4019 111.606 16.2565ZM128.738 17.8957C130.855 18.9901 132.385 23.0921 131.698 25.8296C130.813 29.3541 123.314 31.3301 120.345 28.8216C118.348 27.1348 118.045 19.7673 119.928 18.6573C123.135 16.7648 126.062 16.5116 128.738 17.8957ZM107.235 22.108C105.961 22.8957 106.713 25.0452 108.344 25.2782C109.518 25.4453 109.806 25.1705 109.806 23.8798C109.806 22.1472 108.56 21.2891 107.235 22.108ZM120.941 22.4089C119.928 23.6292 120.571 24.7431 122.289 24.7431C123.264 24.7431 123.547 24.3796 123.392 23.3257C123.131 21.5553 122.001 21.1318 120.941 22.4089ZM118.072 31.0515C117.832 31.2903 117.441 31.2903 117.201 31.0515C116.962 30.812 117.158 30.6162 117.636 30.6162C118.115 30.6162 118.31 30.812 118.072 31.0515ZM167.231 47.2129C167.231 47.3683 167.947 48.9077 168.822 50.6337C170.118 53.1892 170.499 53.5507 170.873 52.5764C171.462 51.0416 169.53 46.9304 168.221 46.9304C167.677 46.9304 167.231 47.0576 167.231 47.2129ZM171.552 47.4557C171.35 47.7826 171.451 48.9781 171.776 50.1123C172.102 51.2471 172.365 52.3826 172.361 52.6358C172.346 53.6721 173.673 53.443 174.018 52.35C174.795 49.8826 172.665 45.654 171.552 47.4557ZM118.615 52.8035C118.85 53.1833 118.2 53.4561 117.061 53.4561C115.984 53.4561 114.922 53.1624 114.7 52.8035C114.465 52.4237 115.115 52.1509 116.254 52.1509C117.331 52.1509 118.393 52.4446 118.615 52.8035ZM134.7 78.4155C133.976 79.5829 132.337 81.5497 131.057 82.7863C128.449 85.3072 128.09 87.3282 130.035 88.5433C130.773 89.004 131.34 90.0651 131.34 90.9839C131.34 93.1896 130.173 93.0558 129.915 90.8214C129.791 89.7421 129.255 88.9459 128.567 88.8154C127.68 88.6471 127.425 89.0471 127.425 90.6048C127.425 92.3928 127.215 92.6101 125.491 92.6101C123.996 92.6101 123.189 92.0691 121.937 90.2269L120.317 87.8431L123.006 86.5132C124.485 85.7816 127.92 82.9632 130.638 80.2498C135.669 75.2296 137.067 74.5986 134.7 78.4155ZM174.083 78.9408C165.272 79.7878 153.631 81.923 152.442 82.9097C151.107 84.0184 149.266 88.3006 147.96 93.3403C147.197 96.2867 146.378 97.766 144.688 99.2493C142.328 101.322 141.748 103.051 143.413 103.051C143.951 103.051 144.392 102.813 144.392 102.521C144.392 101.796 148.327 98.938 148.747 99.3583C148.932 99.5436 148.101 100.578 146.901 101.656C145.208 103.176 144.892 103.793 145.494 104.404C146.099 105.017 146.723 104.811 148.318 103.468C150.595 101.552 153.045 100.718 154.236 101.454C154.765 101.781 154.461 102.231 153.295 102.842C152.32 103.352 151.57 104.304 151.57 105.03C151.57 106.394 152.525 106.756 153.207 105.652C153.802 104.689 158.806 102.239 159.257 102.69C159.468 102.9 159.292 103.421 158.868 103.845C157.898 104.814 157.863 106.314 158.808 106.314C159.2 106.314 160.268 105.727 161.18 105.009C162.093 104.291 163.393 103.704 164.069 103.704C165.055 103.704 165.218 104.027 164.889 105.335C164.626 106.382 164.754 106.967 165.246 106.967C165.669 106.967 166.976 106.232 168.152 105.335C170.735 103.365 171.794 103.257 171.336 105.009C171.099 105.915 171.316 106.314 172.044 106.314C172.621 106.314 173.46 105.727 173.909 105.009C174.357 104.291 174.964 103.704 175.258 103.704C175.552 103.704 175.647 103.938 175.47 104.225C174.954 105.059 176.151 106.525 176.947 106.033C177.346 105.786 177.673 105.046 177.673 104.388C177.673 103.027 178.76 102.671 184.851 102.038C190.183 101.484 203.1 97.3438 203.605 96.0276C203.812 95.4886 203.645 94.5091 203.234 93.8513C202.823 93.1935 201.904 90.5493 201.19 87.9762C199.267 81.0362 198.867 80.6211 193.248 79.7265C185.815 78.5434 180.486 78.3247 174.083 78.9408ZM191.158 81.583C194.511 82.1671 195.61 82.6852 196.999 84.3362L198.711 86.3696L196.675 88.0689C195.555 89.004 194.639 89.9672 194.639 90.2106C194.639 90.9722 197.596 90.6916 198.578 89.8367C199.092 89.3884 198.857 89.774 198.055 90.6942C197.253 91.6149 196.597 92.7158 196.597 93.1413C196.597 94.0869 198.32 94.1697 198.888 93.2522C199.392 92.4359 200.512 93.0473 200.512 94.1391C200.512 96.5875 179.792 101.093 168.533 101.093C159.761 101.093 148.518 97.5174 149.96 95.1858C150.177 94.8341 150.569 94.6787 150.83 94.8406C151.092 95.0018 151.732 94.8543 152.254 94.5123C153.056 93.9857 153.007 93.7417 151.935 92.924C150.696 91.9791 150.7 91.9575 152.098 91.9575C153.775 91.9575 153.978 90.9696 152.474 90.1277C151.616 89.6474 151.561 89.2781 152.175 88.1296C152.784 86.9935 153.172 86.8499 154.179 87.3896C154.867 87.757 159.48 88.3319 164.43 88.666C181.502 89.8191 198.933 86.8538 195.465 83.3861C195.03 82.9508 193.859 83.1622 191.953 84.0204C188.604 85.5265 178.47 86.737 169.211 86.737C163.083 86.737 162.744 86.6646 162.546 85.3196C162.254 83.3339 160.814 83.0683 160.145 84.8772L159.585 86.3892L159.107 84.8824C158.844 84.0536 158.733 83.2719 158.86 83.1446C158.988 83.0167 162.465 82.4855 166.587 81.9628C175.861 80.7869 185.713 80.6348 191.158 81.583ZM134.596 87.7074C135.039 88.2412 135.218 89.1567 134.993 89.7421C134.647 90.6439 134.388 90.5552 133.289 89.158C132.576 88.2516 131.993 87.3361 131.993 87.1233C131.993 86.3526 133.81 86.7605 134.596 87.7074ZM78.4823 100.729C78.4823 100.887 78.143 101.226 77.7286 101.482C77.262 101.771 77.1524 101.661 77.4415 101.195C77.9061 100.442 78.4823 100.184 78.4823 100.729Z" fill="black"/>
</svg>
