<svg width="24" height="24" viewBox="0 0 24 24" fill="none" xmlns="http://www.w3.org/2000/svg">
<path d="M10.7501 21.9999H4.91705C3.76655 21.9988 2.83415 21.0664 2.83305 19.9159V10.2159C2.01626 9.63629 1.76196 8.53744 2.24105 7.65791C3.14105 6.04991 4.05905 4.46491 4.96205 2.94591C5.32422 2.35291 5.97123 1.99371 6.66605 1.99983C7.08957 2.00414 7.50154 2.13855 7.84605 2.38491L7.87005 2.39991C8.28205 2.63991 12.2621 5.00891 15.4611 6.91191L18.3001 8.59991L18.4301 8.67691C20.6481 9.98791 21.1471 10.2859 21.1751 10.3049C21.9916 10.883 22.2427 11.9827 21.7581 12.8579C20.8751 14.4349 19.9581 16.0199 19.0371 17.5699C18.6796 18.1565 18.044 18.5163 17.3571 18.5209C17.2225 18.521 17.0883 18.5059 16.9571 18.4759C16.8411 18.5449 16.2011 18.9559 15.3901 19.4759C13.9471 20.4009 11.9751 21.6659 11.7471 21.7829C11.4394 21.9412 11.0956 22.0161 10.7501 21.9999ZM4.50005 13.0299V19.9159C4.50005 20.1462 4.68675 20.3329 4.91705 20.3329H8.74005C7.28705 17.8799 5.86105 15.4219 4.50005 13.0299ZM5.85805 12.0299C6.25805 12.7169 10.5741 20.1619 10.6101 20.2119C10.6669 20.2858 10.7549 20.329 10.8481 20.3289C10.8972 20.3289 10.9456 20.317 10.9891 20.2939C11.1241 20.2179 15.1831 17.6099 15.2231 17.5839C14.9091 17.3989 12.6371 16.0449 10.2311 14.6119L5.83805 11.9999L5.84505 12.0109L5.85505 12.0279V12.0339L5.85805 12.0299ZM6.33205 3.89991C5.52405 5.19991 3.71605 8.42791 3.69205 8.48691C3.63276 8.62856 3.68536 8.79229 3.81605 8.87291C3.94905 8.95191 17.1701 16.8289 17.2961 16.8489C17.312 16.8501 17.3281 16.8501 17.3441 16.8489C17.4527 16.8493 17.5536 16.7928 17.6101 16.6999C18.4241 15.3329 20.2991 12.0429 20.3041 12.0329C20.362 11.8907 20.3092 11.7274 20.1791 11.6459C20.0521 11.5699 6.85605 3.72791 6.77105 3.69091C6.73242 3.67464 6.69097 3.66615 6.64905 3.66591C6.54374 3.66648 6.44574 3.71981 6.38805 3.80791L6.38105 3.81991L6.37305 3.83191L6.36105 3.85191V3.85691L6.34605 3.88091L6.33105 3.89991H6.33205ZM7.68505 9.38991C6.7656 9.38936 6.02042 8.64403 6.02006 7.72458C6.01969 6.80512 6.76427 6.0592 7.68372 6.05791C8.60318 6.05663 9.34984 6.80046 9.35205 7.71991C9.35095 8.64011 8.60525 9.38581 7.68505 9.38691V9.38991Z" fill="black"/>
</svg>
