<svg width="1860" height="372" viewBox="0 0 1860 372" fill="none" xmlns="http://www.w3.org/2000/svg">
<path opacity="0.1" d="M65.8623 326.593C55.9944 326.593 48.6598 335.112 48.6598 344.943L48.6598 371.893L46.3661 371.893L46.3661 343.796C46.3661 333.965 39.0315 326.593 29.1637 326.593L0.0662878 326.593L0.0662876 324.3L29.1637 324.3C39.0315 324.3 46.3661 316.928 46.3661 307.097L46.3661 279L48.6598 279L48.6598 307.097C48.6598 316.928 55.9944 324.3 65.8623 324.3L93.9597 324.3L93.9597 326.593L65.8623 326.593Z" fill="black"/>
<path opacity="0.1" d="M158.756 326.593C148.888 326.593 141.553 335.112 141.553 344.943L141.553 371.893L139.26 371.893L139.26 343.796C139.26 333.965 131.925 326.593 122.057 326.593L93.9597 326.593L93.9597 324.3L122.057 324.3C131.925 324.3 139.26 316.928 139.26 307.097L139.26 279L141.553 279L141.553 307.097C141.553 316.928 148.888 324.3 158.756 324.3L186.853 324.3L186.853 326.593L158.756 326.593Z" fill="black"/>
<path opacity="0.1" d="M251.649 326.593C241.781 326.593 234.447 335.112 234.447 344.943L234.447 371.893L232.153 371.893L232.153 343.796C232.153 333.965 224.818 326.593 214.95 326.593L186.853 326.593L186.853 324.3L214.95 324.3C224.818 324.3 232.153 316.928 232.153 307.097L232.153 279L234.447 279L234.447 307.097C234.447 316.928 241.781 324.3 251.649 324.3L279.746 324.3L279.746 326.593L251.649 326.593Z" fill="black"/>
<path opacity="0.1" d="M344.542 326.593C334.675 326.593 327.34 335.112 327.34 344.943L327.34 371.893L325.046 371.893L325.046 343.796C325.046 333.965 317.712 326.593 307.844 326.593L279.746 326.593L279.746 324.3L307.844 324.3C317.712 324.3 325.046 316.928 325.046 307.097L325.046 279L327.34 279L327.34 307.097C327.34 316.928 334.675 324.3 344.542 324.3L372.64 324.3L372.64 326.593L344.542 326.593Z" fill="black"/>
<path opacity="0.1" d="M437.436 326.593C427.568 326.593 420.233 335.112 420.233 344.943L420.233 371.893L417.94 371.893L417.94 343.796C417.94 333.965 410.605 326.593 400.737 326.593L372.64 326.593L372.64 324.3L400.737 324.3C410.605 324.3 417.94 316.928 417.94 307.097L417.94 279L420.233 279L420.233 307.097C420.233 316.928 427.568 324.3 437.436 324.3L465.533 324.3L465.533 326.593L437.436 326.593Z" fill="black"/>
<path opacity="0.1" d="M530.329 326.593C520.461 326.593 513.127 335.112 513.127 344.943L513.127 371.893L510.833 371.893L510.833 343.796C510.833 333.965 503.498 326.593 493.63 326.593L465.533 326.593L465.533 324.3L493.63 324.3C503.498 324.3 510.833 316.928 510.833 307.097L510.833 279L513.127 279L513.127 307.097C513.127 316.928 520.461 324.3 530.329 324.3L558.426 324.3L558.426 326.593L530.329 326.593Z" fill="black"/>
<path opacity="0.1" d="M623.222 326.593C613.355 326.593 606.02 335.112 606.02 344.943L606.02 371.893L603.726 371.893L603.726 343.796C603.726 333.965 596.392 326.593 586.524 326.593L558.426 326.593L558.426 324.3L586.524 324.3C596.392 324.3 603.726 316.928 603.726 307.097L603.726 279L606.02 279L606.02 307.097C606.02 316.928 613.355 324.3 623.222 324.3L651.32 324.3L651.32 326.593L623.222 326.593Z" fill="black"/>
<path opacity="0.1" d="M716.116 326.593C706.248 326.593 698.913 335.112 698.913 344.943L698.913 371.893L696.62 371.893L696.62 343.796C696.62 333.965 689.285 326.593 679.417 326.593L651.32 326.593L651.32 324.3L679.417 324.3C689.285 324.3 696.62 316.928 696.62 307.097L696.62 279L698.913 279L698.913 307.097C698.913 316.928 706.248 324.3 716.116 324.3L744.213 324.3L744.213 326.593L716.116 326.593Z" fill="black"/>
<path opacity="0.1" d="M809.009 326.593C799.141 326.593 791.807 335.112 791.807 344.943L791.807 371.893L789.513 371.893L789.513 343.796C789.513 333.965 782.178 326.593 772.311 326.593L744.213 326.593L744.213 324.3L772.311 324.3C782.178 324.3 789.513 316.928 789.513 307.097L789.513 279L791.807 279L791.807 307.097C791.807 316.928 799.141 324.3 809.009 324.3L837.107 324.3L837.107 326.593L809.009 326.593Z" fill="black"/>
<path opacity="0.1" d="M901.903 326.593C892.035 326.593 884.7 335.112 884.7 344.943L884.7 371.893L882.406 371.893L882.406 343.796C882.406 333.965 875.072 326.593 865.204 326.593L837.107 326.593L837.107 324.3L865.204 324.3C875.072 324.3 882.406 316.928 882.406 307.097L882.406 279L884.7 279L884.7 307.097C884.7 316.928 892.035 324.3 901.903 324.3L930 324.3L930 326.593L901.903 326.593Z" fill="black"/>
<path opacity="0.1" d="M994.796 326.593C984.928 326.593 977.593 335.112 977.593 344.943L977.593 371.893L975.3 371.893L975.3 343.796C975.3 333.965 967.965 326.593 958.097 326.593L930 326.593L930 324.3L958.097 324.3C967.965 324.3 975.3 316.928 975.3 307.097L975.3 279L977.593 279L977.593 307.097C977.593 316.928 984.928 324.3 994.796 324.3L1022.89 324.3L1022.89 326.593L994.796 326.593Z" fill="black"/>
<path opacity="0.1" d="M1087.69 326.593C1077.82 326.593 1070.49 335.112 1070.49 344.943L1070.49 371.893L1068.19 371.893L1068.19 343.796C1068.19 333.965 1060.86 326.593 1050.99 326.593L1022.89 326.593L1022.89 324.3L1050.99 324.3C1060.86 324.3 1068.19 316.928 1068.19 307.097L1068.19 279L1070.49 279L1070.49 307.097C1070.49 316.928 1077.82 324.3 1087.69 324.3L1115.79 324.3L1115.79 326.593L1087.69 326.593Z" fill="black"/>
<path opacity="0.1" d="M1180.58 326.593C1170.71 326.593 1163.38 335.112 1163.38 344.943L1163.38 371.893L1161.09 371.893L1161.09 343.796C1161.09 333.965 1153.75 326.593 1143.88 326.593L1115.79 326.593L1115.79 324.3L1143.88 324.3C1153.75 324.3 1161.09 316.928 1161.09 307.097L1161.09 279L1163.38 279L1163.38 307.097C1163.38 316.928 1170.71 324.3 1180.58 324.3L1208.68 324.3L1208.68 326.593L1180.58 326.593Z" fill="black"/>
<path opacity="0.1" d="M1273.48 326.593C1263.61 326.593 1256.27 335.112 1256.27 344.943L1256.27 371.893L1253.98 371.893L1253.98 343.796C1253.98 333.965 1246.65 326.593 1236.78 326.593L1208.68 326.593L1208.68 324.3L1236.78 324.3C1246.65 324.3 1253.98 316.928 1253.98 307.097L1253.98 279L1256.27 279L1256.27 307.097C1256.27 316.928 1263.61 324.3 1273.48 324.3L1301.57 324.3L1301.57 326.593L1273.48 326.593Z" fill="black"/>
<path opacity="0.1" d="M1366.37 326.593C1356.5 326.593 1349.17 335.112 1349.17 344.943L1349.17 371.893L1346.87 371.893L1346.87 343.796C1346.87 333.965 1339.54 326.593 1329.67 326.593L1301.57 326.593L1301.57 324.3L1329.67 324.3C1339.54 324.3 1346.87 316.928 1346.87 307.097L1346.87 279L1349.17 279L1349.17 307.097C1349.17 316.928 1356.5 324.3 1366.37 324.3L1394.47 324.3L1394.47 326.593L1366.37 326.593Z" fill="black"/>
<path opacity="0.1" d="M1459.26 326.593C1449.4 326.593 1442.06 335.112 1442.06 344.943L1442.06 371.893L1439.77 371.893L1439.77 343.796C1439.77 333.965 1432.43 326.593 1422.56 326.593L1394.47 326.593L1394.47 324.3L1422.56 324.3C1432.43 324.3 1439.77 316.928 1439.77 307.097L1439.77 279L1442.06 279L1442.06 307.097C1442.06 316.928 1449.4 324.3 1459.26 324.3L1487.36 324.3L1487.36 326.593L1459.26 326.593Z" fill="black"/>
<path opacity="0.1" d="M1552.16 326.593C1542.29 326.593 1534.95 335.112 1534.95 344.943L1534.95 371.893L1532.66 371.893L1532.66 343.796C1532.66 333.965 1525.33 326.593 1515.46 326.593L1487.36 326.593L1487.36 324.3L1515.46 324.3C1525.33 324.3 1532.66 316.928 1532.66 307.097L1532.66 279L1534.95 279L1534.95 307.097C1534.95 316.928 1542.29 324.3 1552.16 324.3L1580.25 324.3L1580.25 326.593L1552.16 326.593Z" fill="black"/>
<path opacity="0.1" d="M1645.05 326.593C1635.18 326.593 1627.85 335.112 1627.85 344.943L1627.85 371.893L1625.55 371.893L1625.55 343.796C1625.55 333.965 1618.22 326.593 1608.35 326.593L1580.25 326.593L1580.25 324.3L1608.35 324.3C1618.22 324.3 1625.55 316.928 1625.55 307.097L1625.55 279L1627.85 279L1627.85 307.097C1627.85 316.928 1635.18 324.3 1645.05 324.3L1673.15 324.3L1673.15 326.593L1645.05 326.593Z" fill="black"/>
<path opacity="0.1" d="M1737.94 326.593C1728.08 326.593 1720.74 335.112 1720.74 344.943L1720.74 371.893L1718.45 371.893L1718.45 343.796C1718.45 333.965 1711.11 326.593 1701.24 326.593L1673.15 326.593L1673.15 324.3L1701.24 324.3C1711.11 324.3 1718.45 316.928 1718.45 307.097L1718.45 279L1720.74 279L1720.74 307.097C1720.74 316.928 1728.08 324.3 1737.94 324.3L1766.04 324.3L1766.04 326.593L1737.94 326.593Z" fill="black"/>
<path opacity="0.1" d="M1830.84 326.593C1820.97 326.593 1813.63 335.112 1813.63 344.943L1813.63 371.893L1811.34 371.893L1811.34 343.796C1811.34 333.965 1804.01 326.593 1794.14 326.593L1766.04 326.593L1766.04 324.3L1794.14 324.3C1804.01 324.3 1811.34 316.928 1811.34 307.097L1811.34 279L1813.63 279L1813.63 307.097C1813.63 316.928 1820.97 324.3 1830.84 324.3L1859.93 324.3L1859.93 326.593L1830.84 326.593Z" fill="black"/>
<path opacity="0.1" d="M65.8623 47.5935C55.9944 47.5935 48.6598 56.1119 48.6598 65.9428L48.6598 92.8933L46.3661 92.8933L46.3661 64.7959C46.3661 54.965 39.0315 47.5935 29.1637 47.5935L0.0662878 47.5935L0.0662876 45.2998L29.1637 45.2998C39.0315 45.2998 46.3661 37.9282 46.3661 28.0973L46.3661 -4.9245e-05L48.6598 -4.94455e-05L48.6598 28.0973C48.6598 37.9282 55.9944 45.2998 65.8623 45.2998L93.9597 45.2998L93.9597 47.5935L65.8623 47.5935Z" fill="black"/>
<path opacity="0.1" d="M65.8623 140.593C55.9944 140.593 48.6598 149.112 48.6598 158.943L48.6598 185.893L46.3661 185.893L46.3661 157.796C46.3661 147.965 39.0315 140.593 29.1637 140.593L0.0662878 140.593L0.0662876 138.3L29.1637 138.3C39.0315 138.3 46.3661 130.928 46.3661 121.097L46.3661 93L48.6598 93L48.6598 121.097C48.6598 130.928 55.9944 138.3 65.8623 138.3L93.9597 138.3L93.9597 140.593L65.8623 140.593Z" fill="black"/>
<path opacity="0.1" d="M65.8623 233.593C55.9944 233.593 48.6598 242.112 48.6598 251.943L48.6598 278.893L46.3661 278.893L46.3661 250.796C46.3661 240.965 39.0315 233.593 29.1637 233.593L0.0662878 233.593L0.0662876 231.3L29.1637 231.3C39.0315 231.3 46.3661 223.928 46.3661 214.097L46.3661 186L48.6598 186L48.6598 214.097C48.6598 223.928 55.9944 231.3 65.8623 231.3L93.9597 231.3L93.9597 233.593L65.8623 233.593Z" fill="black"/>
<path opacity="0.1" d="M158.756 47.5935C148.888 47.5935 141.553 56.1119 141.553 65.9428L141.553 92.8933L139.26 92.8933L139.26 64.7959C139.26 54.965 131.925 47.5935 122.057 47.5935L93.9597 47.5935L93.9597 45.2998L122.057 45.2998C131.925 45.2998 139.26 37.9282 139.26 28.0973L139.26 -4.9245e-05L141.553 -4.94455e-05L141.553 28.0973C141.553 37.9282 148.888 45.2998 158.756 45.2998L186.853 45.2998L186.853 47.5935L158.756 47.5935Z" fill="black"/>
<path opacity="0.1" d="M251.649 47.5935C241.781 47.5935 234.447 56.1119 234.447 65.9428L234.447 92.8933L232.153 92.8933L232.153 64.7959C232.153 54.965 224.818 47.5935 214.95 47.5935L186.853 47.5935L186.853 45.2998L214.95 45.2998C224.818 45.2998 232.153 37.9282 232.153 28.0973L232.153 -4.9245e-05L234.447 -4.94455e-05L234.447 28.0973C234.447 37.9282 241.781 45.2998 251.649 45.2998L279.746 45.2998L279.746 47.5935L251.649 47.5935Z" fill="black"/>
<path opacity="0.1" d="M344.542 47.5935C334.675 47.5935 327.34 56.1119 327.34 65.9428L327.34 92.8933L325.046 92.8933L325.046 64.7959C325.046 54.965 317.712 47.5935 307.844 47.5935L279.746 47.5935L279.746 45.2998L307.844 45.2998C317.712 45.2998 325.046 37.9282 325.046 28.0973L325.046 -4.9245e-05L327.34 -4.94455e-05L327.34 28.0973C327.34 37.9282 334.675 45.2998 344.542 45.2998L372.64 45.2998L372.64 47.5935L344.542 47.5935Z" fill="black"/>
<path opacity="0.1" d="M437.436 47.5935C427.568 47.5935 420.233 56.1119 420.233 65.9428L420.233 92.8933L417.94 92.8933L417.94 64.7959C417.94 54.965 410.605 47.5935 400.737 47.5935L372.64 47.5935L372.64 45.2998L400.737 45.2998C410.605 45.2998 417.94 37.9282 417.94 28.0973L417.94 -4.9245e-05L420.233 -4.94455e-05L420.233 28.0973C420.233 37.9282 427.568 45.2998 437.436 45.2998L465.533 45.2998L465.533 47.5935L437.436 47.5935Z" fill="black"/>
<path opacity="0.1" d="M530.329 47.5935C520.461 47.5935 513.127 56.1119 513.127 65.9428L513.127 92.8933L510.833 92.8933L510.833 64.7959C510.833 54.965 503.498 47.5935 493.63 47.5935L465.533 47.5935L465.533 45.2998L493.63 45.2998C503.498 45.2998 510.833 37.9282 510.833 28.0973L510.833 -4.9245e-05L513.127 -4.94455e-05L513.127 28.0973C513.127 37.9282 520.461 45.2998 530.329 45.2998L558.426 45.2998L558.426 47.5935L530.329 47.5935Z" fill="black"/>
<path opacity="0.1" d="M623.222 47.5935C613.355 47.5935 606.02 56.1119 606.02 65.9428L606.02 92.8933L603.726 92.8933L603.726 64.7959C603.726 54.965 596.392 47.5935 586.524 47.5935L558.426 47.5935L558.426 45.2998L586.524 45.2998C596.392 45.2998 603.726 37.9282 603.726 28.0973L603.726 -4.9245e-05L606.02 -4.94455e-05L606.02 28.0973C606.02 37.9282 613.355 45.2998 623.222 45.2998L651.32 45.2998L651.32 47.5935L623.222 47.5935Z" fill="black"/>
<path opacity="0.1" d="M716.116 47.5935C706.248 47.5935 698.913 56.1119 698.913 65.9428L698.913 92.8933L696.62 92.8933L696.62 64.7959C696.62 54.965 689.285 47.5935 679.417 47.5935L651.32 47.5935L651.32 45.2998L679.417 45.2998C689.285 45.2998 696.62 37.9282 696.62 28.0973L696.62 -4.9245e-05L698.913 -4.94455e-05L698.913 28.0973C698.913 37.9282 706.248 45.2998 716.116 45.2998L744.213 45.2998L744.213 47.5935L716.116 47.5935Z" fill="black"/>
<path opacity="0.1" d="M809.009 47.5935C799.141 47.5935 791.807 56.1119 791.807 65.9428L791.807 92.8933L789.513 92.8933L789.513 64.7959C789.513 54.965 782.178 47.5935 772.311 47.5935L744.213 47.5935L744.213 45.2998L772.311 45.2998C782.178 45.2998 789.513 37.9282 789.513 28.0973L789.513 -4.9245e-05L791.807 -4.94455e-05L791.807 28.0973C791.807 37.9282 799.141 45.2998 809.009 45.2998L837.107 45.2998L837.107 47.5935L809.009 47.5935Z" fill="black"/>
<path opacity="0.1" d="M901.903 47.5935C892.035 47.5935 884.7 56.1119 884.7 65.9428L884.7 92.8933L882.406 92.8933L882.406 64.7959C882.406 54.965 875.072 47.5935 865.204 47.5935L837.107 47.5935L837.107 45.2998L865.204 45.2998C875.072 45.2998 882.406 37.9282 882.406 28.0973L882.406 -4.9245e-05L884.7 -4.94455e-05L884.7 28.0973C884.7 37.9282 892.035 45.2998 901.903 45.2998L930 45.2998L930 47.5935L901.903 47.5935Z" fill="black"/>
<path opacity="0.1" d="M994.796 47.5935C984.928 47.5935 977.593 56.1119 977.593 65.9428L977.593 92.8933L975.3 92.8933L975.3 64.7959C975.3 54.965 967.965 47.5935 958.097 47.5935L930 47.5935L930 45.2998L958.097 45.2998C967.965 45.2998 975.3 37.9282 975.3 28.0973L975.3 -4.9245e-05L977.593 -4.94455e-05L977.593 28.0973C977.593 37.9282 984.928 45.2998 994.796 45.2998L1022.89 45.2998L1022.89 47.5935L994.796 47.5935Z" fill="black"/>
<path opacity="0.1" d="M158.862 140.593C148.994 140.593 141.66 149.112 141.66 158.943L141.66 185.893L139.366 185.893L139.366 157.796C139.366 147.965 132.032 140.593 122.164 140.593L94.0663 140.593L94.0663 138.3L122.164 138.3C132.032 138.3 139.366 130.928 139.366 121.097L139.366 93L141.66 93L141.66 121.097C141.66 130.928 148.994 138.3 158.862 138.3L186.96 138.3L186.96 140.593L158.862 140.593Z" fill="black"/>
<path opacity="0.1" d="M158.862 233.593C148.994 233.593 141.66 242.112 141.66 251.943L141.66 278.893L139.366 278.893L139.366 250.796C139.366 240.965 132.032 233.593 122.164 233.593L94.0663 233.593L94.0663 231.3L122.164 231.3C132.032 231.3 139.366 223.928 139.366 214.097L139.366 186L141.66 186L141.66 214.097C141.66 223.928 148.994 231.3 158.862 231.3L186.96 231.3L186.96 233.593L158.862 233.593Z" fill="black"/>
<path opacity="0.1" d="M1087.69 47.5935C1077.82 47.5935 1070.49 56.1119 1070.49 65.9428L1070.49 92.8933L1068.19 92.8933L1068.19 64.7959C1068.19 54.965 1060.86 47.5935 1050.99 47.5935L1022.89 47.5935L1022.89 45.2998L1050.99 45.2998C1060.86 45.2998 1068.19 37.9282 1068.19 28.0973L1068.19 -4.9245e-05L1070.49 -4.94455e-05L1070.49 28.0973C1070.49 37.9282 1077.82 45.2998 1087.69 45.2998L1115.79 45.2998L1115.79 47.5935L1087.69 47.5935Z" fill="black"/>
<path opacity="0.1" d="M1180.58 47.5935C1170.71 47.5935 1163.38 56.1119 1163.38 65.9428L1163.38 92.8933L1161.09 92.8933L1161.09 64.7959C1161.09 54.965 1153.75 47.5935 1143.88 47.5935L1115.79 47.5935L1115.79 45.2998L1143.88 45.2998C1153.75 45.2998 1161.09 37.9282 1161.09 28.0973L1161.09 -4.9245e-05L1163.38 -4.94455e-05L1163.38 28.0973C1163.38 37.9282 1170.71 45.2998 1180.58 45.2998L1208.68 45.2998L1208.68 47.5935L1180.58 47.5935Z" fill="black"/>
<path opacity="0.1" d="M1180.58 140.593C1170.71 140.593 1163.38 149.112 1163.38 158.943L1163.38 185.893L1161.09 185.893L1161.09 157.796C1161.09 147.965 1153.75 140.593 1143.88 140.593L1115.79 140.593L1115.79 138.3L1143.88 138.3C1153.75 138.3 1161.09 130.928 1161.09 121.097L1161.09 93L1163.38 93L1163.38 121.097C1163.38 130.928 1170.71 138.3 1180.58 138.3L1208.68 138.3L1208.68 140.593L1180.58 140.593Z" fill="black"/>
<path opacity="0.1" d="M1180.58 233.593C1170.71 233.593 1163.38 242.112 1163.38 251.943L1163.38 278.893L1161.09 278.893L1161.09 250.796C1161.09 240.965 1153.75 233.593 1143.88 233.593L1115.79 233.593L1115.79 231.3L1143.88 231.3C1153.75 231.3 1161.09 223.928 1161.09 214.097L1161.09 186L1163.38 186L1163.38 214.097C1163.38 223.928 1170.71 231.3 1180.58 231.3L1208.68 231.3L1208.68 233.593L1180.58 233.593Z" fill="black"/>
<path opacity="0.1" d="M1273.48 47.5935C1263.61 47.5935 1256.27 56.1119 1256.27 65.9428L1256.27 92.8933L1253.98 92.8933L1253.98 64.7959C1253.98 54.965 1246.65 47.5935 1236.78 47.5935L1208.68 47.5935L1208.68 45.2998L1236.78 45.2998C1246.65 45.2998 1253.98 37.9282 1253.98 28.0973L1253.98 -4.9245e-05L1256.27 -4.94455e-05L1256.27 28.0973C1256.27 37.9282 1263.61 45.2998 1273.48 45.2998L1301.57 45.2998L1301.57 47.5935L1273.48 47.5935Z" fill="black"/>
<path opacity="0.1" d="M1273.48 140.593C1263.61 140.593 1256.27 149.112 1256.27 158.943L1256.27 185.893L1253.98 185.893L1253.98 157.796C1253.98 147.965 1246.65 140.593 1236.78 140.593L1208.68 140.593L1208.68 138.3L1236.78 138.3C1246.65 138.3 1253.98 130.928 1253.98 121.097L1253.98 93L1256.27 93L1256.27 121.097C1256.27 130.928 1263.61 138.3 1273.48 138.3L1301.57 138.3L1301.57 140.593L1273.48 140.593Z" fill="black"/>
<path opacity="0.1" d="M1273.48 233.593C1263.61 233.593 1256.27 242.112 1256.27 251.943L1256.27 278.893L1253.98 278.893L1253.98 250.796C1253.98 240.965 1246.65 233.593 1236.78 233.593L1208.68 233.593L1208.68 231.3L1236.78 231.3C1246.65 231.3 1253.98 223.928 1253.98 214.097L1253.98 186L1256.27 186L1256.27 214.097C1256.27 223.928 1263.61 231.3 1273.48 231.3L1301.57 231.3L1301.57 233.593L1273.48 233.593Z" fill="black"/>
<path opacity="0.1" d="M1366.37 47.5935C1356.5 47.5935 1349.17 56.1119 1349.17 65.9428L1349.17 92.8933L1346.87 92.8933L1346.87 64.7959C1346.87 54.965 1339.54 47.5935 1329.67 47.5935L1301.57 47.5935L1301.57 45.2998L1329.67 45.2998C1339.54 45.2998 1346.87 37.9282 1346.87 28.0973L1346.87 -4.9245e-05L1349.17 -4.94455e-05L1349.17 28.0973C1349.17 37.9282 1356.5 45.2998 1366.37 45.2998L1394.47 45.2998L1394.47 47.5935L1366.37 47.5935Z" fill="black"/>
<path opacity="0.1" d="M1366.37 140.593C1356.5 140.593 1349.17 149.112 1349.17 158.943L1349.17 185.893L1346.87 185.893L1346.87 157.796C1346.87 147.965 1339.54 140.593 1329.67 140.593L1301.57 140.593L1301.57 138.3L1329.67 138.3C1339.54 138.3 1346.87 130.928 1346.87 121.097L1346.87 93L1349.17 93L1349.17 121.097C1349.17 130.928 1356.5 138.3 1366.37 138.3L1394.47 138.3L1394.47 140.593L1366.37 140.593Z" fill="black"/>
<path opacity="0.1" d="M1366.37 233.593C1356.5 233.593 1349.17 242.112 1349.17 251.943L1349.17 278.893L1346.87 278.893L1346.87 250.796C1346.87 240.965 1339.54 233.593 1329.67 233.593L1301.57 233.593L1301.57 231.3L1329.67 231.3C1339.54 231.3 1346.87 223.928 1346.87 214.097L1346.87 186L1349.17 186L1349.17 214.097C1349.17 223.928 1356.5 231.3 1366.37 231.3L1394.47 231.3L1394.47 233.593L1366.37 233.593Z" fill="black"/>
<path opacity="0.1" d="M1459.26 47.5935C1449.4 47.5935 1442.06 56.1119 1442.06 65.9428L1442.06 92.8933L1439.77 92.8933L1439.77 64.7959C1439.77 54.965 1432.43 47.5935 1422.56 47.5935L1394.47 47.5935L1394.47 45.2998L1422.56 45.2998C1432.43 45.2998 1439.77 37.9282 1439.77 28.0973L1439.77 -4.9245e-05L1442.06 -4.94455e-05L1442.06 28.0973C1442.06 37.9282 1449.4 45.2998 1459.26 45.2998L1487.36 45.2998L1487.36 47.5935L1459.26 47.5935Z" fill="black"/>
<path opacity="0.1" d="M1459.26 140.593C1449.4 140.593 1442.06 149.112 1442.06 158.943L1442.06 185.893L1439.77 185.893L1439.77 157.796C1439.77 147.965 1432.43 140.593 1422.56 140.593L1394.47 140.593L1394.47 138.3L1422.56 138.3C1432.43 138.3 1439.77 130.928 1439.77 121.097L1439.77 93L1442.06 93L1442.06 121.097C1442.06 130.928 1449.4 138.3 1459.26 138.3L1487.36 138.3L1487.36 140.593L1459.26 140.593Z" fill="black"/>
<path opacity="0.1" d="M1459.26 233.593C1449.4 233.593 1442.06 242.112 1442.06 251.943L1442.06 278.893L1439.77 278.893L1439.77 250.796C1439.77 240.965 1432.43 233.593 1422.56 233.593L1394.47 233.593L1394.47 231.3L1422.56 231.3C1432.43 231.3 1439.77 223.928 1439.77 214.097L1439.77 186L1442.06 186L1442.06 214.097C1442.06 223.928 1449.4 231.3 1459.26 231.3L1487.36 231.3L1487.36 233.593L1459.26 233.593Z" fill="black"/>
<path opacity="0.1" d="M1552.16 47.5935C1542.29 47.5935 1534.95 56.1119 1534.95 65.9428L1534.95 92.8933L1532.66 92.8933L1532.66 64.7959C1532.66 54.965 1525.33 47.5935 1515.46 47.5935L1487.36 47.5935L1487.36 45.2998L1515.46 45.2998C1525.33 45.2998 1532.66 37.9282 1532.66 28.0973L1532.66 -4.9245e-05L1534.95 -4.94455e-05L1534.95 28.0973C1534.95 37.9282 1542.29 45.2998 1552.16 45.2998L1580.25 45.2998L1580.25 47.5935L1552.16 47.5935Z" fill="black"/>
<path opacity="0.1" d="M1552.16 140.593C1542.29 140.593 1534.95 149.112 1534.95 158.943L1534.95 185.893L1532.66 185.893L1532.66 157.796C1532.66 147.965 1525.33 140.593 1515.46 140.593L1487.36 140.593L1487.36 138.3L1515.46 138.3C1525.33 138.3 1532.66 130.928 1532.66 121.097L1532.66 93L1534.95 93L1534.95 121.097C1534.95 130.928 1542.29 138.3 1552.16 138.3L1580.25 138.3L1580.25 140.593L1552.16 140.593Z" fill="black"/>
<path opacity="0.1" d="M1552.16 233.593C1542.29 233.593 1534.95 242.112 1534.95 251.943L1534.95 278.893L1532.66 278.893L1532.66 250.796C1532.66 240.965 1525.33 233.593 1515.46 233.593L1487.36 233.593L1487.36 231.3L1515.46 231.3C1525.33 231.3 1532.66 223.928 1532.66 214.097L1532.66 186L1534.95 186L1534.95 214.097C1534.95 223.928 1542.29 231.3 1552.16 231.3L1580.25 231.3L1580.25 233.593L1552.16 233.593Z" fill="black"/>
<path opacity="0.1" d="M1645.05 47.5935C1635.18 47.5935 1627.85 56.1119 1627.85 65.9428L1627.85 92.8933L1625.55 92.8933L1625.55 64.7959C1625.55 54.965 1618.22 47.5935 1608.35 47.5935L1580.25 47.5935L1580.25 45.2998L1608.35 45.2998C1618.22 45.2998 1625.55 37.9282 1625.55 28.0973L1625.55 -4.9245e-05L1627.85 -4.94455e-05L1627.85 28.0973C1627.85 37.9282 1635.18 45.2998 1645.05 45.2998L1673.15 45.2998L1673.15 47.5935L1645.05 47.5935Z" fill="black"/>
<path opacity="0.1" d="M1645.05 140.593C1635.18 140.593 1627.85 149.112 1627.85 158.943L1627.85 185.893L1625.55 185.893L1625.55 157.796C1625.55 147.965 1618.22 140.593 1608.35 140.593L1580.25 140.593L1580.25 138.3L1608.35 138.3C1618.22 138.3 1625.55 130.928 1625.55 121.097L1625.55 93L1627.85 93L1627.85 121.097C1627.85 130.928 1635.18 138.3 1645.05 138.3L1673.15 138.3L1673.15 140.593L1645.05 140.593Z" fill="black"/>
<path opacity="0.1" d="M1645.05 233.593C1635.18 233.593 1627.85 242.112 1627.85 251.943L1627.85 278.893L1625.55 278.893L1625.55 250.796C1625.55 240.965 1618.22 233.593 1608.35 233.593L1580.25 233.593L1580.25 231.3L1608.35 231.3C1618.22 231.3 1625.55 223.928 1625.55 214.097L1625.55 186L1627.85 186L1627.85 214.097C1627.85 223.928 1635.18 231.3 1645.05 231.3L1673.15 231.3L1673.15 233.593L1645.05 233.593Z" fill="black"/>
<path opacity="0.1" d="M1737.94 47.5935C1728.08 47.5935 1720.74 56.1119 1720.74 65.9428L1720.74 92.8933L1718.45 92.8933L1718.45 64.7959C1718.45 54.965 1711.11 47.5935 1701.24 47.5935L1673.15 47.5935L1673.15 45.2998L1701.24 45.2998C1711.11 45.2998 1718.45 37.9282 1718.45 28.0973L1718.45 -4.9245e-05L1720.74 -4.94455e-05L1720.74 28.0973C1720.74 37.9282 1728.08 45.2998 1737.94 45.2998L1766.04 45.2998L1766.04 47.5935L1737.94 47.5935Z" fill="black"/>
<path opacity="0.1" d="M1737.94 140.593C1728.08 140.593 1720.74 149.112 1720.74 158.943L1720.74 185.893L1718.45 185.893L1718.45 157.796C1718.45 147.965 1711.11 140.593 1701.24 140.593L1673.15 140.593L1673.15 138.3L1701.24 138.3C1711.11 138.3 1718.45 130.928 1718.45 121.097L1718.45 93L1720.74 93L1720.74 121.097C1720.74 130.928 1728.08 138.3 1737.94 138.3L1766.04 138.3L1766.04 140.593L1737.94 140.593Z" fill="black"/>
<path opacity="0.1" d="M1737.94 233.593C1728.08 233.593 1720.74 242.112 1720.74 251.943L1720.74 278.893L1718.45 278.893L1718.45 250.796C1718.45 240.965 1711.11 233.593 1701.24 233.593L1673.15 233.593L1673.15 231.3L1701.24 231.3C1711.11 231.3 1718.45 223.928 1718.45 214.097L1718.45 186L1720.74 186L1720.74 214.097C1720.74 223.928 1728.08 231.3 1737.94 231.3L1766.04 231.3L1766.04 233.593L1737.94 233.593Z" fill="black"/>
<path opacity="0.1" d="M1830.84 47.5935C1820.97 47.5935 1813.63 56.1119 1813.63 65.9428L1813.63 92.8933L1811.34 92.8933L1811.34 64.7959C1811.34 54.965 1804.01 47.5935 1794.14 47.5935L1766.04 47.5935L1766.04 45.2998L1794.14 45.2998C1804.01 45.2998 1811.34 37.9282 1811.34 28.0973L1811.34 -4.91576e-05L1813.63 -4.93581e-05L1813.63 28.0973C1813.63 37.9282 1820.97 45.2998 1830.84 45.2998L1859.93 45.2998L1859.93 47.5935L1830.84 47.5935Z" fill="black"/>
<path opacity="0.1" d="M1830.84 140.593C1820.97 140.593 1813.63 149.112 1813.63 158.943L1813.63 185.893L1811.34 185.893L1811.34 157.796C1811.34 147.965 1804.01 140.593 1794.14 140.593L1766.04 140.593L1766.04 138.3L1794.14 138.3C1804.01 138.3 1811.34 130.928 1811.34 121.097L1811.34 93L1813.63 93L1813.63 121.097C1813.63 130.928 1820.97 138.3 1830.84 138.3L1859.93 138.3L1859.93 140.593L1830.84 140.593Z" fill="black"/>
<path opacity="0.1" d="M1830.84 233.593C1820.97 233.593 1813.63 242.112 1813.63 251.943L1813.63 278.893L1811.34 278.893L1811.34 250.796C1811.34 240.965 1804.01 233.593 1794.14 233.593L1766.04 233.593L1766.04 231.3L1794.14 231.3C1804.01 231.3 1811.34 223.928 1811.34 214.097L1811.34 186L1813.63 186L1813.63 214.097C1813.63 223.928 1820.97 231.3 1830.84 231.3L1859.93 231.3L1859.93 233.593L1830.84 233.593Z" fill="black"/>
</svg>
