<svg width="1858" height="372" viewBox="0 0 1858 372" fill="none" xmlns="http://www.w3.org/2000/svg">
<path opacity="0.1" d="M64.7962 326.594C54.9283 326.594 47.5937 335.112 47.5937 344.943L47.5937 371.893L45.3 371.893L45.3 343.796C45.3 333.965 37.9654 326.594 28.0976 326.594L0.000186775 326.594L0.000186574 324.3L28.0976 324.3C37.9654 324.3 45.3 316.928 45.3 307.097L45.3 279L47.5937 279L47.5937 307.097C47.5937 316.928 54.9283 324.3 64.7962 324.3L92.8936 324.3L92.8936 326.594L64.7962 326.594Z" fill="black"/>
<path opacity="0.1" d="M157.689 326.594C147.821 326.594 140.487 335.112 140.487 344.943L140.487 371.893L138.193 371.893L138.193 343.796C138.193 333.965 130.858 326.594 120.991 326.594L92.8933 326.594L92.8933 324.3L120.991 324.3C130.858 324.3 138.193 316.928 138.193 307.097L138.193 279L140.487 279L140.487 307.097C140.487 316.928 147.821 324.3 157.689 324.3L185.787 324.3L185.787 326.594L157.689 326.594Z" fill="black"/>
<path opacity="0.1" d="M250.583 326.594C240.715 326.594 233.38 335.112 233.38 344.943L233.38 371.893L231.087 371.893L231.087 343.796C231.087 333.965 223.752 326.594 213.884 326.594L185.787 326.594L185.787 324.3L213.884 324.3C223.752 324.3 231.087 316.928 231.087 307.097L231.087 279L233.38 279L233.38 307.097C233.38 316.928 240.715 324.3 250.583 324.3L278.68 324.3L278.68 326.594L250.583 326.594Z" fill="black"/>
<path opacity="0.1" d="M343.476 326.594C333.608 326.594 326.273 335.112 326.273 344.943L326.273 371.893L323.98 371.893L323.98 343.796C323.98 333.965 316.645 326.594 306.777 326.594L278.68 326.594L278.68 324.3L306.777 324.3C316.645 324.3 323.98 316.928 323.98 307.097L323.98 279L326.273 279L326.273 307.097C326.273 316.928 333.608 324.3 343.476 324.3L371.573 324.3L371.573 326.594L343.476 326.594Z" fill="black"/>
<path opacity="0.1" d="M436.369 326.594C426.502 326.594 419.167 335.112 419.167 344.943L419.167 371.893L416.873 371.893L416.873 343.796C416.873 333.965 409.539 326.594 399.671 326.594L371.573 326.594L371.573 324.3L399.671 324.3C409.539 324.3 416.873 316.928 416.873 307.097L416.873 279L419.167 279L419.167 307.097C419.167 316.928 426.502 324.3 436.369 324.3L464.467 324.3L464.467 326.594L436.369 326.594Z" fill="black"/>
<path opacity="0.1" d="M529.263 326.594C519.395 326.594 512.06 335.112 512.06 344.943L512.061 371.893L509.767 371.893L509.767 343.796C509.767 333.965 502.432 326.594 492.564 326.594L464.467 326.594L464.467 324.3L492.564 324.3C502.432 324.3 509.767 316.928 509.767 307.097L509.767 279L512.06 279L512.06 307.097C512.06 316.928 519.395 324.3 529.263 324.3L557.36 324.3L557.36 326.594L529.263 326.594Z" fill="black"/>
<path opacity="0.1" d="M622.156 326.594C612.288 326.594 604.954 335.112 604.954 344.943L604.954 371.893L602.66 371.893L602.66 343.796C602.66 333.965 595.325 326.594 585.457 326.594L557.36 326.594L557.36 324.3L585.457 324.3C595.325 324.3 602.66 316.928 602.66 307.097L602.66 279L604.954 279L604.954 307.097C604.954 316.928 612.288 324.3 622.156 324.3L650.253 324.3L650.253 326.594L622.156 326.594Z" fill="black"/>
<path opacity="0.1" d="M715.05 326.594C705.182 326.594 697.847 335.112 697.847 344.943L697.847 371.893L695.553 371.893L695.553 343.796C695.553 333.965 688.219 326.594 678.351 326.594L650.254 326.594L650.254 324.3L678.351 324.3C688.219 324.3 695.553 316.928 695.553 307.097L695.553 279L697.847 279L697.847 307.097C697.847 316.928 705.182 324.3 715.05 324.3L743.147 324.3L743.147 326.594L715.05 326.594Z" fill="black"/>
<path opacity="0.1" d="M807.943 326.594C798.075 326.594 790.74 335.112 790.74 344.943L790.74 371.893L788.447 371.893L788.447 343.796C788.447 333.965 781.112 326.594 771.244 326.594L743.147 326.594L743.147 324.3L771.244 324.3C781.112 324.3 788.447 316.928 788.447 307.097L788.447 279L790.74 279L790.74 307.097C790.74 316.928 798.075 324.3 807.943 324.3L836.04 324.3L836.04 326.594L807.943 326.594Z" fill="black"/>
<path opacity="0.1" d="M900.836 326.594C890.968 326.594 883.634 335.112 883.634 344.943L883.634 371.893L881.34 371.893L881.34 343.796C881.34 333.965 874.005 326.594 864.138 326.594L836.04 326.594L836.04 324.3L864.138 324.3C874.005 324.3 881.34 316.928 881.34 307.097L881.34 279L883.634 279L883.634 307.097C883.634 316.928 890.968 324.3 900.836 324.3L928.934 324.3L928.934 326.594L900.836 326.594Z" fill="black"/>
<path opacity="0.1" d="M993.73 326.594C983.862 326.594 976.527 335.112 976.527 344.943L976.527 371.893L974.234 371.893L974.234 343.796C974.234 333.965 966.899 326.594 957.031 326.594L928.934 326.594L928.934 324.3L957.031 324.3C966.899 324.3 974.234 316.928 974.234 307.097L974.234 279L976.527 279L976.527 307.097C976.527 316.928 983.862 324.3 993.73 324.3L1021.83 324.3L1021.83 326.594L993.73 326.594Z" fill="black"/>
<path opacity="0.1" d="M1086.62 326.594C1076.76 326.594 1069.42 335.112 1069.42 344.943L1069.42 371.893L1067.13 371.893L1067.13 343.796C1067.13 333.965 1059.79 326.594 1049.92 326.594L1021.83 326.594L1021.83 324.3L1049.92 324.3C1059.79 324.3 1067.13 316.928 1067.13 307.097L1067.13 279L1069.42 279L1069.42 307.097C1069.42 316.928 1076.76 324.3 1086.62 324.3L1114.72 324.3L1114.72 326.594L1086.62 326.594Z" fill="black"/>
<path opacity="0.1" d="M1179.52 326.594C1169.65 326.594 1162.31 335.112 1162.31 344.943L1162.31 371.893L1160.02 371.893L1160.02 343.796C1160.02 333.965 1152.69 326.594 1142.82 326.594L1114.72 326.594L1114.72 324.3L1142.82 324.3C1152.69 324.3 1160.02 316.928 1160.02 307.097L1160.02 279L1162.31 279L1162.31 307.097C1162.31 316.928 1169.65 324.3 1179.52 324.3L1207.61 324.3L1207.61 326.594L1179.52 326.594Z" fill="black"/>
<path opacity="0.1" d="M1272.41 326.594C1262.54 326.594 1255.21 335.112 1255.21 344.943L1255.21 371.893L1252.91 371.893L1252.91 343.796C1252.91 333.965 1245.58 326.594 1235.71 326.594L1207.61 326.594L1207.61 324.3L1235.71 324.3C1245.58 324.3 1252.91 316.928 1252.91 307.097L1252.91 279L1255.21 279L1255.21 307.097C1255.21 316.928 1262.54 324.3 1272.41 324.3L1300.51 324.3L1300.51 326.594L1272.41 326.594Z" fill="black"/>
<path opacity="0.1" d="M1365.3 326.594C1355.44 326.594 1348.1 335.112 1348.1 344.943L1348.1 371.893L1345.81 371.893L1345.81 343.796C1345.81 333.965 1338.47 326.594 1328.6 326.594L1300.51 326.594L1300.51 324.3L1328.6 324.3C1338.47 324.3 1345.81 316.928 1345.81 307.097L1345.81 279L1348.1 279L1348.1 307.097C1348.1 316.928 1355.44 324.3 1365.3 324.3L1393.4 324.3L1393.4 326.594L1365.3 326.594Z" fill="black"/>
<path opacity="0.1" d="M1458.2 326.594C1448.33 326.594 1440.99 335.112 1440.99 344.943L1440.99 371.893L1438.7 371.893L1438.7 343.796C1438.7 333.965 1431.37 326.594 1421.5 326.594L1393.4 326.594L1393.4 324.3L1421.5 324.3C1431.37 324.3 1438.7 316.928 1438.7 307.097L1438.7 279L1440.99 279L1440.99 307.097C1440.99 316.928 1448.33 324.3 1458.2 324.3L1486.29 324.3L1486.29 326.594L1458.2 326.594Z" fill="black"/>
<path opacity="0.1" d="M1551.09 326.594C1541.22 326.594 1533.89 335.112 1533.89 344.943L1533.89 371.893L1531.59 371.893L1531.59 343.796C1531.59 333.965 1524.26 326.594 1514.39 326.594L1486.29 326.594L1486.29 324.3L1514.39 324.3C1524.26 324.3 1531.59 316.928 1531.59 307.097L1531.59 279L1533.89 279L1533.89 307.097C1533.89 316.928 1541.22 324.3 1551.09 324.3L1579.19 324.3L1579.19 326.594L1551.09 326.594Z" fill="black"/>
<path opacity="0.1" d="M1643.98 326.594C1634.12 326.594 1626.78 335.112 1626.78 344.943L1626.78 371.893L1624.49 371.893L1624.49 343.796C1624.49 333.965 1617.15 326.594 1607.28 326.594L1579.19 326.594L1579.19 324.3L1607.28 324.3C1617.15 324.3 1624.49 316.928 1624.49 307.097L1624.49 279L1626.78 279L1626.78 307.097C1626.78 316.928 1634.12 324.3 1643.98 324.3L1672.08 324.3L1672.08 326.594L1643.98 326.594Z" fill="black"/>
<path opacity="0.1" d="M1736.88 326.594C1727.01 326.594 1719.67 335.112 1719.67 344.943L1719.67 371.893L1717.38 371.893L1717.38 343.796C1717.38 333.965 1710.05 326.594 1700.18 326.594L1672.08 326.594L1672.08 324.3L1700.18 324.3C1710.05 324.3 1717.38 316.928 1717.38 307.097L1717.38 279L1719.67 279L1719.67 307.097C1719.67 316.928 1727.01 324.3 1736.88 324.3L1764.97 324.3L1764.97 326.594L1736.88 326.594Z" fill="black"/>
<path opacity="0.1" d="M1829.77 326.594C1819.9 326.594 1812.57 335.112 1812.57 344.943L1812.57 371.893L1810.27 371.893L1810.27 343.796C1810.27 333.965 1802.94 326.594 1793.07 326.594L1764.97 326.594L1764.97 324.3L1793.07 324.3C1802.94 324.3 1810.27 316.928 1810.27 307.097L1810.27 279L1812.57 279L1812.57 307.097C1812.57 316.928 1819.9 324.3 1829.77 324.3L1857.87 324.3L1857.87 326.594L1829.77 326.594Z" fill="black"/>
<path opacity="0.1" d="M64.7962 47.5935C54.9283 47.5935 47.5937 56.1119 47.5937 65.9428L47.5937 92.8934L45.3 92.8934L45.3 64.796C45.3 54.9651 37.9654 47.5935 28.0976 47.5935L0.000186775 47.5935L0.000186574 45.2999L28.0976 45.2999C37.9654 45.2999 45.3 37.9283 45.3 28.0974L45.3 1.17902e-05L47.5937 1.15896e-05L47.5937 28.0974C47.5937 37.9283 54.9283 45.2999 64.7962 45.2999L92.8936 45.2999L92.8936 47.5935L64.7962 47.5935Z" fill="black"/>
<path opacity="0.1" d="M64.7962 140.594C54.9283 140.594 47.5937 149.112 47.5937 158.943L47.5937 185.893L45.3 185.893L45.3 157.796C45.3 147.965 37.9654 140.594 28.0976 140.594L0.000186775 140.594L0.000186574 138.3L28.0976 138.3C37.9654 138.3 45.3 130.928 45.3 121.097L45.3 93L47.5937 93L47.5937 121.097C47.5937 130.928 54.9283 138.3 64.7962 138.3L92.8936 138.3L92.8936 140.594L64.7962 140.594Z" fill="black"/>
<path opacity="0.1" d="M64.7962 233.594C54.9283 233.594 47.5937 242.112 47.5937 251.943L47.5937 278.893L45.3 278.893L45.3 250.796C45.3 240.965 37.9654 233.594 28.0976 233.594L0.000186775 233.594L0.000186574 231.3L28.0976 231.3C37.9654 231.3 45.3 223.928 45.3 214.097L45.3 186L47.5937 186L47.5937 214.097C47.5937 223.928 54.9283 231.3 64.7962 231.3L92.8936 231.3L92.8936 233.594L64.7962 233.594Z" fill="black"/>
<path opacity="0.1" d="M157.689 47.5935C147.821 47.5935 140.487 56.1119 140.487 65.9428L140.487 92.8934L138.193 92.8934L138.193 64.796C138.193 54.9651 130.858 47.5935 120.991 47.5935L92.8933 47.5935L92.8933 45.2999L120.991 45.2999C130.858 45.2999 138.193 37.9283 138.193 28.0974L138.193 1.17902e-05L140.487 1.15896e-05L140.487 28.0974C140.487 37.9283 147.821 45.2999 157.689 45.2999L185.787 45.2999L185.787 47.5935L157.689 47.5935Z" fill="black"/>
<path opacity="0.1" d="M250.583 47.5935C240.715 47.5935 233.38 56.1119 233.38 65.9428L233.38 92.8934L231.087 92.8934L231.087 64.796C231.087 54.9651 223.752 47.5935 213.884 47.5935L185.787 47.5935L185.787 45.2999L213.884 45.2999C223.752 45.2999 231.087 37.9283 231.087 28.0974L231.087 1.17902e-05L233.38 1.15896e-05L233.38 28.0974C233.38 37.9283 240.715 45.2999 250.583 45.2999L278.68 45.2999L278.68 47.5935L250.583 47.5935Z" fill="black"/>
<path opacity="0.1" d="M343.476 47.5935C333.608 47.5935 326.273 56.1119 326.273 65.9428L326.273 92.8934L323.98 92.8934L323.98 64.796C323.98 54.9651 316.645 47.5935 306.777 47.5935L278.68 47.5935L278.68 45.2999L306.777 45.2999C316.645 45.2999 323.98 37.9283 323.98 28.0974L323.98 1.17902e-05L326.273 1.15896e-05L326.273 28.0974C326.273 37.9283 333.608 45.2999 343.476 45.2999L371.573 45.2999L371.573 47.5935L343.476 47.5935Z" fill="black"/>
<path opacity="0.1" d="M436.369 47.5935C426.502 47.5935 419.167 56.1119 419.167 65.9428L419.167 92.8934L416.873 92.8934L416.873 64.796C416.873 54.9651 409.539 47.5935 399.671 47.5935L371.573 47.5935L371.573 45.2999L399.671 45.2999C409.539 45.2999 416.873 37.9283 416.873 28.0974L416.873 1.17902e-05L419.167 1.15896e-05L419.167 28.0974C419.167 37.9283 426.502 45.2999 436.369 45.2999L464.467 45.2999L464.467 47.5935L436.369 47.5935Z" fill="black"/>
<path opacity="0.1" d="M529.263 47.5935C519.395 47.5935 512.06 56.1119 512.06 65.9428L512.061 92.8934L509.767 92.8934L509.767 64.796C509.767 54.9651 502.432 47.5935 492.564 47.5935L464.467 47.5935L464.467 45.2999L492.564 45.2999C502.432 45.2999 509.767 37.9283 509.767 28.0974L509.767 1.17902e-05L512.06 1.15896e-05L512.06 28.0974C512.06 37.9283 519.395 45.2999 529.263 45.2999L557.36 45.2999L557.36 47.5935L529.263 47.5935Z" fill="black"/>
<path opacity="0.1" d="M622.156 47.5935C612.288 47.5935 604.954 56.1119 604.954 65.9428L604.954 92.8934L602.66 92.8934L602.66 64.796C602.66 54.9651 595.325 47.5935 585.457 47.5935L557.36 47.5935L557.36 45.2999L585.457 45.2999C595.325 45.2999 602.66 37.9283 602.66 28.0974L602.66 1.17902e-05L604.954 1.15896e-05L604.954 28.0974C604.954 37.9283 612.288 45.2999 622.156 45.2999L650.253 45.2999L650.253 47.5935L622.156 47.5935Z" fill="black"/>
<path opacity="0.1" d="M715.05 47.5935C705.182 47.5935 697.847 56.1119 697.847 65.9428L697.847 92.8934L695.553 92.8934L695.553 64.796C695.553 54.9651 688.219 47.5935 678.351 47.5935L650.254 47.5935L650.254 45.2999L678.351 45.2999C688.219 45.2999 695.553 37.9283 695.553 28.0974L695.553 1.17902e-05L697.847 1.15896e-05L697.847 28.0974C697.847 37.9283 705.182 45.2999 715.05 45.2999L743.147 45.2999L743.147 47.5935L715.05 47.5935Z" fill="black"/>
<path opacity="0.1" d="M807.943 47.5935C798.075 47.5935 790.74 56.1119 790.74 65.9428L790.74 92.8934L788.447 92.8934L788.447 64.796C788.447 54.9651 781.112 47.5935 771.244 47.5935L743.147 47.5935L743.147 45.2999L771.244 45.2999C781.112 45.2999 788.447 37.9283 788.447 28.0974L788.447 1.17902e-05L790.74 1.15896e-05L790.74 28.0974C790.74 37.9283 798.075 45.2999 807.943 45.2999L836.04 45.2999L836.04 47.5935L807.943 47.5935Z" fill="black"/>
<path opacity="0.1" d="M900.836 47.5935C890.968 47.5935 883.634 56.1119 883.634 65.9428L883.634 92.8934L881.34 92.8934L881.34 64.796C881.34 54.9651 874.005 47.5935 864.138 47.5935L836.04 47.5935L836.04 45.2999L864.138 45.2999C874.005 45.2999 881.34 37.9283 881.34 28.0974L881.34 1.17902e-05L883.634 1.15896e-05L883.634 28.0974C883.634 37.9283 890.968 45.2999 900.836 45.2999L928.934 45.2999L928.934 47.5935L900.836 47.5935Z" fill="black"/>
<path opacity="0.1" d="M993.73 47.5935C983.862 47.5935 976.527 56.1119 976.527 65.9428L976.527 92.8934L974.234 92.8934L974.234 64.796C974.234 54.9651 966.899 47.5935 957.031 47.5935L928.934 47.5935L928.934 45.2999L957.031 45.2999C966.899 45.2999 974.234 37.9283 974.234 28.0974L974.234 1.17902e-05L976.527 1.15896e-05L976.527 28.0974C976.527 37.9283 983.862 45.2999 993.73 45.2999L1021.83 45.2999L1021.83 47.5935L993.73 47.5935Z" fill="black"/>
<path opacity="0.1" d="M157.796 140.593C147.928 140.593 140.594 149.112 140.594 158.943L140.594 185.893L138.3 185.893L138.3 157.796C138.3 147.965 130.965 140.593 121.098 140.593L93.0002 140.593L93.0002 138.3L121.098 138.3C130.965 138.3 138.3 130.928 138.3 121.097L138.3 93L140.594 93L140.594 121.097C140.594 130.928 147.928 138.3 157.796 138.3L185.894 138.3L185.894 140.593L157.796 140.593Z" fill="black"/>
<path opacity="0.1" d="M157.796 233.593C147.928 233.593 140.594 242.112 140.594 251.943L140.594 278.893L138.3 278.893L138.3 250.796C138.3 240.965 130.965 233.593 121.098 233.593L93.0002 233.593L93.0002 231.3L121.098 231.3C130.965 231.3 138.3 223.928 138.3 214.097L138.3 186L140.594 186L140.594 214.097C140.594 223.928 147.928 231.3 157.796 231.3L185.894 231.3L185.894 233.593L157.796 233.593Z" fill="black"/>
<path opacity="0.1" d="M1086.62 47.5935C1076.76 47.5935 1069.42 56.1119 1069.42 65.9428L1069.42 92.8934L1067.13 92.8934L1067.13 64.796C1067.13 54.9651 1059.79 47.5935 1049.92 47.5935L1021.83 47.5935L1021.83 45.2999L1049.92 45.2999C1059.79 45.2999 1067.13 37.9283 1067.13 28.0974L1067.13 1.17902e-05L1069.42 1.15896e-05L1069.42 28.0974C1069.42 37.9283 1076.76 45.2999 1086.62 45.2999L1114.72 45.2999L1114.72 47.5935L1086.62 47.5935Z" fill="black"/>
<path opacity="0.1" d="M1086.62 140.594C1076.76 140.594 1069.42 149.112 1069.42 158.943L1069.42 185.893L1067.13 185.893L1067.13 157.796C1067.13 147.965 1059.79 140.594 1049.92 140.594L1021.83 140.594L1021.83 138.3L1049.92 138.3C1059.79 138.3 1067.13 130.928 1067.13 121.097L1067.13 93L1069.42 93L1069.42 121.097C1069.42 130.928 1076.76 138.3 1086.62 138.3L1114.72 138.3L1114.72 140.594L1086.62 140.594Z" fill="black"/>
<path opacity="0.1" d="M1086.62 233.594C1076.76 233.594 1069.42 242.112 1069.42 251.943L1069.42 278.893L1067.13 278.893L1067.13 250.796C1067.13 240.965 1059.79 233.594 1049.92 233.594L1021.83 233.594L1021.83 231.3L1049.92 231.3C1059.79 231.3 1067.13 223.928 1067.13 214.097L1067.13 186L1069.42 186L1069.42 214.097C1069.42 223.928 1076.76 231.3 1086.62 231.3L1114.72 231.3L1114.72 233.594L1086.62 233.594Z" fill="black"/>
<path opacity="0.1" d="M1179.52 47.5935C1169.65 47.5935 1162.31 56.1119 1162.31 65.9428L1162.31 92.8934L1160.02 92.8934L1160.02 64.796C1160.02 54.9651 1152.69 47.5935 1142.82 47.5935L1114.72 47.5935L1114.72 45.2999L1142.82 45.2999C1152.69 45.2999 1160.02 37.9283 1160.02 28.0974L1160.02 1.17902e-05L1162.31 1.15896e-05L1162.31 28.0974C1162.31 37.9283 1169.65 45.2999 1179.52 45.2999L1207.61 45.2999L1207.61 47.5935L1179.52 47.5935Z" fill="black"/>
<path opacity="0.1" d="M1179.52 140.594C1169.65 140.594 1162.31 149.112 1162.31 158.943L1162.31 185.893L1160.02 185.893L1160.02 157.796C1160.02 147.965 1152.69 140.594 1142.82 140.594L1114.72 140.594L1114.72 138.3L1142.82 138.3C1152.69 138.3 1160.02 130.928 1160.02 121.097L1160.02 93L1162.31 93L1162.31 121.097C1162.31 130.928 1169.65 138.3 1179.52 138.3L1207.61 138.3L1207.61 140.594L1179.52 140.594Z" fill="black"/>
<path opacity="0.1" d="M1179.52 233.594C1169.65 233.594 1162.31 242.112 1162.31 251.943L1162.31 278.893L1160.02 278.893L1160.02 250.796C1160.02 240.965 1152.69 233.594 1142.82 233.594L1114.72 233.594L1114.72 231.3L1142.82 231.3C1152.69 231.3 1160.02 223.928 1160.02 214.097L1160.02 186L1162.31 186L1162.31 214.097C1162.31 223.928 1169.65 231.3 1179.52 231.3L1207.61 231.3L1207.61 233.594L1179.52 233.594Z" fill="black"/>
<path opacity="0.1" d="M1272.41 47.5935C1262.54 47.5935 1255.21 56.1119 1255.21 65.9428L1255.21 92.8934L1252.91 92.8934L1252.91 64.796C1252.91 54.9651 1245.58 47.5935 1235.71 47.5935L1207.61 47.5935L1207.61 45.2999L1235.71 45.2999C1245.58 45.2999 1252.91 37.9283 1252.91 28.0974L1252.91 1.17902e-05L1255.21 1.15896e-05L1255.21 28.0974C1255.21 37.9283 1262.54 45.2999 1272.41 45.2999L1300.51 45.2999L1300.51 47.5935L1272.41 47.5935Z" fill="black"/>
<path opacity="0.1" d="M1272.41 140.594C1262.54 140.594 1255.21 149.112 1255.21 158.943L1255.21 185.893L1252.91 185.893L1252.91 157.796C1252.91 147.965 1245.58 140.594 1235.71 140.594L1207.61 140.594L1207.61 138.3L1235.71 138.3C1245.58 138.3 1252.91 130.928 1252.91 121.097L1252.91 93L1255.21 93L1255.21 121.097C1255.21 130.928 1262.54 138.3 1272.41 138.3L1300.51 138.3L1300.51 140.594L1272.41 140.594Z" fill="black"/>
<path opacity="0.1" d="M1272.41 233.594C1262.54 233.594 1255.21 242.112 1255.21 251.943L1255.21 278.893L1252.91 278.893L1252.91 250.796C1252.91 240.965 1245.58 233.594 1235.71 233.594L1207.61 233.594L1207.61 231.3L1235.71 231.3C1245.58 231.3 1252.91 223.928 1252.91 214.097L1252.91 186L1255.21 186L1255.21 214.097C1255.21 223.928 1262.54 231.3 1272.41 231.3L1300.51 231.3L1300.51 233.594L1272.41 233.594Z" fill="black"/>
<path opacity="0.1" d="M1365.3 47.5935C1355.44 47.5935 1348.1 56.1119 1348.1 65.9428L1348.1 92.8934L1345.81 92.8934L1345.81 64.796C1345.81 54.9651 1338.47 47.5935 1328.6 47.5935L1300.51 47.5935L1300.51 45.2999L1328.6 45.2999C1338.47 45.2999 1345.81 37.9283 1345.81 28.0974L1345.81 1.17902e-05L1348.1 1.15896e-05L1348.1 28.0974C1348.1 37.9283 1355.44 45.2999 1365.3 45.2999L1393.4 45.2999L1393.4 47.5935L1365.3 47.5935Z" fill="black"/>
<path opacity="0.1" d="M1365.3 140.594C1355.44 140.594 1348.1 149.112 1348.1 158.943L1348.1 185.893L1345.81 185.893L1345.81 157.796C1345.81 147.965 1338.47 140.594 1328.6 140.594L1300.51 140.594L1300.51 138.3L1328.6 138.3C1338.47 138.3 1345.81 130.928 1345.81 121.097L1345.81 93L1348.1 93L1348.1 121.097C1348.1 130.928 1355.44 138.3 1365.3 138.3L1393.4 138.3L1393.4 140.594L1365.3 140.594Z" fill="black"/>
<path opacity="0.1" d="M1365.3 233.594C1355.44 233.594 1348.1 242.112 1348.1 251.943L1348.1 278.893L1345.81 278.893L1345.81 250.796C1345.81 240.965 1338.47 233.594 1328.6 233.594L1300.51 233.594L1300.51 231.3L1328.6 231.3C1338.47 231.3 1345.81 223.928 1345.81 214.097L1345.81 186L1348.1 186L1348.1 214.097C1348.1 223.928 1355.44 231.3 1365.3 231.3L1393.4 231.3L1393.4 233.594L1365.3 233.594Z" fill="black"/>
<path opacity="0.1" d="M1458.2 47.5935C1448.33 47.5935 1440.99 56.1119 1440.99 65.9428L1440.99 92.8934L1438.7 92.8934L1438.7 64.796C1438.7 54.9651 1431.37 47.5935 1421.5 47.5935L1393.4 47.5935L1393.4 45.2999L1421.5 45.2999C1431.37 45.2999 1438.7 37.9283 1438.7 28.0974L1438.7 1.17902e-05L1440.99 1.15896e-05L1440.99 28.0974C1440.99 37.9283 1448.33 45.2999 1458.2 45.2999L1486.29 45.2999L1486.29 47.5935L1458.2 47.5935Z" fill="black"/>
<path opacity="0.1" d="M1458.2 140.594C1448.33 140.594 1440.99 149.112 1440.99 158.943L1440.99 185.893L1438.7 185.893L1438.7 157.796C1438.7 147.965 1431.37 140.594 1421.5 140.594L1393.4 140.594L1393.4 138.3L1421.5 138.3C1431.37 138.3 1438.7 130.928 1438.7 121.097L1438.7 93L1440.99 93L1440.99 121.097C1440.99 130.928 1448.33 138.3 1458.2 138.3L1486.29 138.3L1486.29 140.594L1458.2 140.594Z" fill="black"/>
<path opacity="0.1" d="M1458.2 233.594C1448.33 233.594 1440.99 242.112 1440.99 251.943L1440.99 278.893L1438.7 278.893L1438.7 250.796C1438.7 240.965 1431.37 233.594 1421.5 233.594L1393.4 233.594L1393.4 231.3L1421.5 231.3C1431.37 231.3 1438.7 223.928 1438.7 214.097L1438.7 186L1440.99 186L1440.99 214.097C1440.99 223.928 1448.33 231.3 1458.2 231.3L1486.29 231.3L1486.29 233.594L1458.2 233.594Z" fill="black"/>
<path opacity="0.1" d="M1551.09 47.5935C1541.22 47.5935 1533.89 56.1119 1533.89 65.9428L1533.89 92.8934L1531.59 92.8934L1531.59 64.796C1531.59 54.9651 1524.26 47.5935 1514.39 47.5935L1486.29 47.5935L1486.29 45.2999L1514.39 45.2999C1524.26 45.2999 1531.59 37.9283 1531.59 28.0974L1531.59 1.17902e-05L1533.89 1.15896e-05L1533.89 28.0974C1533.89 37.9283 1541.22 45.2999 1551.09 45.2999L1579.19 45.2999L1579.19 47.5935L1551.09 47.5935Z" fill="black"/>
<path opacity="0.1" d="M1551.09 140.594C1541.22 140.594 1533.89 149.112 1533.89 158.943L1533.89 185.893L1531.59 185.893L1531.59 157.796C1531.59 147.965 1524.26 140.594 1514.39 140.594L1486.29 140.594L1486.29 138.3L1514.39 138.3C1524.26 138.3 1531.59 130.928 1531.59 121.097L1531.59 93L1533.89 93L1533.89 121.097C1533.89 130.928 1541.22 138.3 1551.09 138.3L1579.19 138.3L1579.19 140.594L1551.09 140.594Z" fill="black"/>
<path opacity="0.1" d="M1551.09 233.594C1541.22 233.594 1533.89 242.112 1533.89 251.943L1533.89 278.893L1531.59 278.893L1531.59 250.796C1531.59 240.965 1524.26 233.594 1514.39 233.594L1486.29 233.594L1486.29 231.3L1514.39 231.3C1524.26 231.3 1531.59 223.928 1531.59 214.097L1531.59 186L1533.89 186L1533.89 214.097C1533.89 223.928 1541.22 231.3 1551.09 231.3L1579.19 231.3L1579.19 233.594L1551.09 233.594Z" fill="black"/>
<path opacity="0.1" d="M1643.98 47.5935C1634.12 47.5935 1626.78 56.1119 1626.78 65.9428L1626.78 92.8934L1624.49 92.8934L1624.49 64.796C1624.49 54.9651 1617.15 47.5935 1607.28 47.5935L1579.19 47.5935L1579.19 45.2999L1607.28 45.2999C1617.15 45.2999 1624.49 37.9283 1624.49 28.0974L1624.49 1.17902e-05L1626.78 1.15896e-05L1626.78 28.0974C1626.78 37.9283 1634.12 45.2999 1643.98 45.2999L1672.08 45.2999L1672.08 47.5935L1643.98 47.5935Z" fill="black"/>
<path opacity="0.1" d="M1643.98 140.594C1634.12 140.594 1626.78 149.112 1626.78 158.943L1626.78 185.893L1624.49 185.893L1624.49 157.796C1624.49 147.965 1617.15 140.594 1607.28 140.594L1579.19 140.594L1579.19 138.3L1607.28 138.3C1617.15 138.3 1624.49 130.928 1624.49 121.097L1624.49 93L1626.78 93L1626.78 121.097C1626.78 130.928 1634.12 138.3 1643.98 138.3L1672.08 138.3L1672.08 140.594L1643.98 140.594Z" fill="black"/>
<path opacity="0.1" d="M1643.98 233.594C1634.12 233.594 1626.78 242.112 1626.78 251.943L1626.78 278.893L1624.49 278.893L1624.49 250.796C1624.49 240.965 1617.15 233.594 1607.28 233.594L1579.19 233.594L1579.19 231.3L1607.28 231.3C1617.15 231.3 1624.49 223.928 1624.49 214.097L1624.49 186L1626.78 186L1626.78 214.097C1626.78 223.928 1634.12 231.3 1643.98 231.3L1672.08 231.3L1672.08 233.594L1643.98 233.594Z" fill="black"/>
<path opacity="0.1" d="M1736.88 47.5935C1727.01 47.5935 1719.67 56.1119 1719.67 65.9428L1719.67 92.8934L1717.38 92.8934L1717.38 64.796C1717.38 54.9651 1710.05 47.5935 1700.18 47.5935L1672.08 47.5935L1672.08 45.2999L1700.18 45.2999C1710.05 45.2999 1717.38 37.9283 1717.38 28.0974L1717.38 1.17902e-05L1719.67 1.15896e-05L1719.67 28.0974C1719.67 37.9283 1727.01 45.2999 1736.88 45.2999L1764.97 45.2999L1764.97 47.5935L1736.88 47.5935Z" fill="black"/>
<path opacity="0.1" d="M1736.88 140.594C1727.01 140.594 1719.67 149.112 1719.67 158.943L1719.67 185.893L1717.38 185.893L1717.38 157.796C1717.38 147.965 1710.05 140.594 1700.18 140.594L1672.08 140.594L1672.08 138.3L1700.18 138.3C1710.05 138.3 1717.38 130.928 1717.38 121.097L1717.38 93L1719.67 93L1719.67 121.097C1719.67 130.928 1727.01 138.3 1736.88 138.3L1764.97 138.3L1764.97 140.594L1736.88 140.594Z" fill="black"/>
<path opacity="0.1" d="M1736.88 233.594C1727.01 233.594 1719.67 242.112 1719.67 251.943L1719.67 278.893L1717.38 278.893L1717.38 250.796C1717.38 240.965 1710.05 233.594 1700.18 233.594L1672.08 233.594L1672.08 231.3L1700.18 231.3C1710.05 231.3 1717.38 223.928 1717.38 214.097L1717.38 186L1719.67 186L1719.67 214.097C1719.67 223.928 1727.01 231.3 1736.88 231.3L1764.97 231.3L1764.97 233.594L1736.88 233.594Z" fill="black"/>
<path opacity="0.1" d="M1829.77 47.5935C1819.9 47.5935 1812.57 56.1119 1812.57 65.9428L1812.57 92.8934L1810.27 92.8934L1810.27 64.796C1810.27 54.9651 1802.94 47.5935 1793.07 47.5935L1764.97 47.5935L1764.97 45.2999L1793.07 45.2999C1802.94 45.2999 1810.27 37.9283 1810.27 28.0974L1810.27 1.17902e-05L1812.57 1.15896e-05L1812.57 28.0974C1812.57 37.9283 1819.9 45.2999 1829.77 45.2999L1857.87 45.2999L1857.87 47.5935L1829.77 47.5935Z" fill="black"/>
<path opacity="0.1" d="M1829.77 140.594C1819.9 140.594 1812.57 149.112 1812.57 158.943L1812.57 185.893L1810.27 185.893L1810.27 157.796C1810.27 147.965 1802.94 140.594 1793.07 140.594L1764.97 140.594L1764.97 138.3L1793.07 138.3C1802.94 138.3 1810.27 130.928 1810.27 121.097L1810.27 93L1812.57 93L1812.57 121.097C1812.57 130.928 1819.9 138.3 1829.77 138.3L1857.87 138.3L1857.87 140.594L1829.77 140.594Z" fill="black"/>
<path opacity="0.1" d="M1829.77 233.594C1819.9 233.594 1812.57 242.112 1812.57 251.943L1812.57 278.893L1810.27 278.893L1810.27 250.796C1810.27 240.965 1802.94 233.594 1793.07 233.594L1764.97 233.594L1764.97 231.3L1793.07 231.3C1802.94 231.3 1810.27 223.928 1810.27 214.097L1810.27 186L1812.57 186L1812.57 214.097C1812.57 223.928 1819.9 231.3 1829.77 231.3L1857.87 231.3L1857.87 233.594L1829.77 233.594Z" fill="black"/>
</svg>
